<svg width="22" height="22" viewBox="0 0 22 22" fill="none" xmlns="http://www.w3.org/2000/svg">
<path d="M14 11.0005H11M11 11.0005H8M11 11.0005V8.00049M11 11.0005V14.0005" stroke="#555454" stroke-width="2" stroke-linecap="round"/>
<path d="M21 11C21 15.714 21 18.0711 19.5355 19.5355C18.0711 21 15.714 21 11 21C6.28595 21 3.92893 21 2.46447 19.5355C1 18.0711 1 15.714 1 11C1 6.28595 1 3.92893 2.46447 2.46447C3.92893 1 6.28595 1 11 1C15.714 1 18.0711 1 19.5355 2.46447C20.5093 3.43821 20.8356 4.80655 20.9449 7" stroke="#555454" stroke-width="2" stroke-linecap="round"/>
</svg>
