<svg width="26" height="19" viewBox="0 0 26 19" fill="none" xmlns="http://www.w3.org/2000/svg">
<path d="M19.6555 7.75H20.525C23.3831 7.75 25.7 10.2684 25.7 13.375C25.7 16.4816 23.3831 19 20.525 19H9.025C6.80205 19 5 17.0412 5 14.625C5 12.421 6.49943 10.5976 8.45 10.2943C8.45 6.79822 11.0244 4 14.2 4H14.775C17.0282 4 18.9451 5.56526 19.6555 7.75ZM19.9184 9C19.9393 9.20521 19.95 9.41374 19.95 9.625C19.95 9.97018 19.6926 10.25 19.375 10.25C19.0574 10.25 18.8 9.97018 18.8 9.625C18.8 7.20875 16.9979 5.25 14.775 5.25H14.2C11.6595 5.25 9.6 7.48858 9.6 10.25V10.875C9.6 11.2202 9.34256 11.5 9.025 11.5C7.43718 11.5 6.15 12.8991 6.15 14.625C6.15 16.3509 7.43718 17.75 9.025 17.75H20.525C22.7479 17.75 24.55 15.7912 24.55 13.375C24.55 10.9588 22.7479 9 20.525 9H19.9184Z" fill="#555453"/>
<path d="M10.9599 3.16202C11.1699 3.42076 11.1191 3.78138 10.8464 3.96747C10.5738 4.15356 10.1825 4.09467 9.97259 3.83592C9.32321 3.03563 8.39129 2.47042 7.32341 2.25231C4.95604 1.7688 2.6763 3.14244 2.23146 5.32042C1.86163 7.13121 2.87992 8.97001 4.66845 9.79754C4.98024 9.9418 5.11493 10.2891 4.9693 10.5733C4.82367 10.8575 4.45286 10.971 4.14108 10.8267C1.84012 9.7621 0.531225 7.39853 1.00675 5.07029C1.57867 2.27002 4.50977 0.503914 7.55354 1.12557C8.92523 1.40573 10.1255 2.13371 10.9599 3.16202Z" fill="#555453"/>
</svg>
