<svg width="477" height="479" viewBox="0 0 477 479" fill="none" xmlns="http://www.w3.org/2000/svg">
<path d="M230.241 0.717537C223.258 2.96717 218.997 7.82164 217.636 14.8665C215.387 27.0619 225.862 37.3629 237.993 34.8172C243.911 33.574 249.948 28.1867 251.427 22.7403C252.433 19.2474 252.256 13.6233 251.131 10.9001C247.758 2.84877 238.112 -1.8873 230.241 0.717537Z" fill="url(#paint0_linear_238_195)"/>
<path d="M272.022 46.835C266.281 49.0254 262.908 53.8799 262.967 59.9776C262.967 63.7664 264.21 66.8449 267.05 70.2193C273.028 77.3234 286.935 75.2514 291.373 66.6673C292.616 64.24 292.616 58.32 291.373 55.4191C290.071 52.3407 287.112 49.203 284.272 47.723C281.254 46.1838 274.981 45.7102 272.022 46.835Z" fill="url(#paint1_linear_238_195)"/>
<path d="M139.222 56.7807C126.795 57.6688 125.611 58.2016 125.611 63.056C125.611 67.7921 125.079 67.6737 151.295 67.6737C170.943 67.6737 174.967 67.8513 180.056 68.7985C196.686 71.877 211.363 77.9746 226.572 88.098C236.751 94.9061 240.716 97.9253 256.99 110.831C280.425 129.539 291.669 137.175 304.926 143.51C323.567 152.331 336.054 155.291 354.932 155.291C367.419 155.291 374.462 154.285 384.759 151.028C399.85 146.292 434.588 130.012 439.678 125.276C442.104 123.026 441.986 120.007 439.323 117.343C436.068 114.087 435.121 114.324 418.136 122.967C388.724 138.064 371.858 143.332 353.157 143.332C344.221 143.332 337.77 142.326 328.598 139.544C309.187 133.564 294.747 125.099 268.175 104.023C250.362 89.9332 233.141 77.7378 222.962 71.9954C199.822 58.912 174.375 54.2351 139.222 56.7807Z" fill="url(#paint2_linear_238_195)"/>
<path d="M316.051 68.0289C310.962 70.5153 308.536 74.9554 308.891 81.1123C309.068 84.3683 309.423 85.5524 310.844 87.6244C314.335 92.5973 322.384 94.9061 327.946 92.5973C336.528 89.0452 337.77 76.9682 330.314 70.3377C325.994 66.5489 320.727 65.7201 316.051 68.0289Z" fill="url(#paint3_linear_238_195)"/>
<path d="M396.358 78.5667C395.234 79.1587 393.695 80.5203 392.985 81.5859C390.44 85.3156 391.624 92.4789 395.115 94.3141C399.554 96.5637 403.992 95.9125 407.01 92.4789C408.549 90.7029 408.786 89.9924 408.786 86.9732C408.786 82.8883 407.247 80.1059 404.051 78.5075C401.388 77.1459 398.903 77.1459 396.358 78.5667Z" fill="url(#paint4_linear_238_195)"/>
<path d="M369.413 46.9293C368.289 47.5213 366.75 48.8829 366.04 49.9485C363.495 53.6782 364.679 60.8415 368.17 62.6767C372.609 64.9263 377.047 64.2751 380.066 60.8415C381.604 59.0655 381.841 58.3551 381.841 55.3358C381.841 51.2509 380.302 48.4685 377.107 46.8701C374.444 45.5085 371.958 45.5085 369.413 46.9293Z" fill="url(#paint5_linear_238_195)"/>
<path d="M333.413 25.9293C332.289 26.5213 330.75 27.8829 330.04 28.9485C327.495 32.6782 328.679 39.8415 332.17 41.6767C336.609 43.9263 341.047 43.2751 344.066 39.8415C345.604 38.0655 345.841 37.3551 345.841 34.3358C345.841 30.2509 344.302 27.4685 341.107 25.8701C338.444 24.5085 335.958 24.5085 333.413 25.9293Z" fill="url(#paint6_linear_238_195)"/>
<path d="M288.413 9.92929C287.289 10.5213 285.75 11.8829 285.04 12.9485C282.495 16.6782 283.679 23.8415 287.17 25.6767C291.609 27.9263 296.047 27.2751 299.066 23.8415C300.604 22.0655 300.841 21.3551 300.841 18.3358C300.841 14.2509 299.302 11.4685 296.107 9.87009C293.444 8.50847 290.958 8.50847 288.413 9.92929Z" fill="url(#paint7_linear_238_195)"/>
<path d="M180.413 8.92929C179.289 9.5213 177.75 10.8829 177.04 11.9485C174.495 15.6782 175.679 22.8415 179.17 24.6767C183.609 26.9263 188.047 26.2751 191.066 22.8415C192.604 21.0655 192.841 20.3551 192.841 17.3358C192.841 13.2509 191.302 10.4685 188.107 8.87009C185.444 7.50847 182.958 7.50847 180.413 8.92929Z" fill="url(#paint8_linear_238_195)"/>
<path d="M130.413 25.9293C129.289 26.5213 127.75 27.8829 127.04 28.9485C124.495 32.6782 125.679 39.8415 129.17 41.6767C133.609 43.9263 138.047 43.2751 141.066 39.8415C142.604 38.0655 142.841 37.3551 142.841 34.3358C142.841 30.2509 141.302 27.4685 138.107 25.8701C135.444 24.5085 132.958 24.5085 130.413 25.9293Z" fill="url(#paint9_linear_238_195)"/>
<path d="M89.4133 52.9293C88.2888 53.5213 86.7502 54.8829 86.04 55.9485C83.4953 59.6782 84.6789 66.8415 88.1705 68.6767C92.609 70.9263 97.0474 70.2751 100.066 66.8415C101.604 65.0655 101.841 64.3551 101.841 61.3358C101.841 57.2509 100.302 54.4685 97.1066 52.8701C94.4435 51.5085 91.958 51.5085 89.4133 52.9293Z" fill="url(#paint10_linear_238_195)"/>
<path d="M58.6197 80.3427C53.3527 83.6579 52.9384 91.8276 57.7912 95.9717C61.4011 98.9909 65.958 98.7541 69.7455 95.3797C73.8881 91.5908 74.0064 85.4932 69.923 81.5267C68.1476 79.8099 67.4375 79.5731 64.1826 79.3363C61.2828 79.2179 60.0992 79.3955 58.6197 80.3427Z" fill="url(#paint11_linear_238_195)"/>
<path d="M352.21 90.5252C349.488 91.2948 346.884 94.0181 346.055 96.8005C344.99 100.353 346.706 105.562 349.547 107.457C353.512 110.121 358.365 109.943 361.738 106.983C364.164 104.852 365.23 101.892 364.815 98.3397C364.46 94.9653 362.981 92.8932 359.667 91.1764C356.885 89.8148 355.228 89.6372 352.21 90.5252Z" fill="url(#paint12_linear_238_195)"/>
<path d="M129.162 108.167C115.847 109.825 97.7375 113.495 72.7045 119.77C66.7274 121.25 59.3891 122.908 56.4301 123.382C53.116 123.974 50.6897 124.684 50.1571 125.276C49.6244 125.868 49.2102 127.763 49.0918 129.716L48.8551 133.091L51.1631 134.038C54.1221 135.34 58.9748 134.689 74.4207 131.019C89.5115 127.407 113.006 122.73 123.303 121.25C133.837 119.711 151.532 119.119 159.048 120.007C185.205 123.263 205.74 133.268 239.177 159.139C243.971 162.869 250.599 168.019 253.913 170.624C289.006 197.797 313.98 207.743 347.535 207.743C362.093 207.743 372.45 206.263 386.002 202.237C402.986 197.205 428.848 186.075 446.898 175.952C455.064 171.394 457.077 170.683 463.409 169.795C468.498 169.144 470.451 168.315 472.937 165.888C482.11 156.712 473.469 142.504 460.923 146.115C456.544 147.358 451.81 152.272 450.685 156.771C450.093 158.961 449.679 159.376 443.761 162.75C434.943 167.782 414.171 177.965 404.643 181.813C380.794 191.581 366.295 194.896 347.535 194.896C334.634 194.956 326.94 193.831 315.164 190.279C296.226 184.536 279.538 174.709 251.072 152.627C246.219 148.838 238.704 143.155 234.383 140.017C211.067 122.967 188.578 112.134 169.404 108.759C159.107 106.983 141.116 106.687 129.162 108.167ZM51.9324 129.539C51.9324 129.835 51.6957 130.131 51.3406 130.131C51.0448 130.131 50.7489 129.835 50.7489 129.539C50.7489 129.183 51.0448 128.947 51.3406 128.947C51.6957 128.947 51.9324 129.183 51.9324 129.539Z" fill="url(#paint13_linear_238_195)"/>
<path d="M25.4199 130.723C22.6976 132.38 21.1589 135.222 21.1589 138.596C21.1589 142.148 22.3425 144.457 25.124 146.411C30.2726 149.904 38.2619 146.825 39.6822 140.787C40.5699 137.176 37.966 132.439 34.0601 130.367C31.7521 129.183 27.7279 129.361 25.4199 130.723Z" fill="url(#paint14_linear_238_195)"/>
<path d="M130.05 159.198C122.771 159.909 113.598 161.862 106.91 164.23C91.8787 169.44 70.5741 181.399 49.151 196.495C42.227 201.408 39.1496 204.368 38.5578 206.796C38.0844 208.809 39.3272 212.183 41.1026 213.604C43.9432 215.794 46.192 215.084 53.116 209.756C63.8276 201.586 82.7651 189.864 95.4295 183.707C111.941 175.656 123.362 172.755 138.927 172.755C155.615 172.755 166.741 175.478 182.956 183.589C192.898 188.562 207.516 197.975 222.725 209.282C248.409 228.286 268.589 238.587 291.492 244.388C303.564 247.407 321.969 248.887 335.877 247.94C345.819 247.23 348.008 246.756 349.961 244.921C351.737 243.263 351.914 238.883 350.316 236.929C348.245 234.324 347.18 234.206 337.593 234.916C320.194 236.278 301.138 233.969 284.805 228.404C266.518 222.247 249.297 212.42 221.482 192.291C190.768 170.032 171.12 161.211 147.508 159.198C139.578 158.488 137.329 158.488 130.05 159.198Z" fill="url(#paint15_linear_238_195)"/>
<path d="M8.90874 177.432C5.65386 178.971 3.99683 181.635 3.99683 185.483C3.99683 197.028 20.5671 197.916 22.6976 186.49C23.9404 179.918 15.4777 174.354 8.90874 177.432Z" fill="url(#paint16_linear_238_195)"/>
<path d="M127.919 213.663C107.265 215.498 85.073 224.793 61.9929 241.251C57.9095 244.151 49.1509 250.663 42.4636 255.696C24.5322 269.312 23.9404 269.667 8.02104 276.83C3.46421 278.902 1.62964 281.211 1.62964 284.763C1.62964 286.362 2.10308 287.546 3.28667 288.848C5.65386 291.512 8.61284 291.394 16.0695 288.315C24.473 284.882 29.2074 281.803 48.5 267.299C58.0279 260.136 68.3843 252.617 71.4617 250.604C90.0441 238.409 107.088 230.772 121.054 228.404C129.458 226.924 141.767 226.865 149.638 228.167C165.321 230.772 183.785 239.534 202.485 253.209C229.057 272.627 250.125 283.224 270.897 287.664C279.952 289.618 298.061 289.618 309.068 287.664C331.201 283.757 350.731 276.771 391.032 258.3C397.601 255.281 404.702 252.262 417.663 246.875C422.871 244.743 425.475 242.316 425.534 239.534C425.593 236.87 424.113 234.561 421.51 233.318C419.557 232.37 419.202 232.37 416.065 233.377C412.751 234.442 397.127 241.014 364.401 255.222C320.549 274.166 300.191 278.429 274.33 274.048C265.512 272.509 256.635 269.549 246.929 264.872C236.455 259.84 229.767 255.873 215.564 246.283C209.054 241.843 201.894 236.988 199.586 235.449C180.411 222.602 161.474 215.202 143.661 213.604C136.145 212.953 135.672 212.953 127.919 213.663Z" fill="url(#paint17_linear_238_195)"/>
<path d="M5.06208 222.306C1.86638 223.846 0.26853 226.214 0.0318114 229.825C-0.382446 235.508 3.28669 239.652 8.84958 239.652C15.0635 239.652 18.3183 236.633 18.4367 230.772C18.4959 227.042 17.549 225.148 14.5308 222.898C12.3412 221.241 7.78435 221.004 5.06208 222.306Z" fill="url(#paint18_linear_238_195)"/>
<path d="M455.064 222.484C452.224 224.26 450.803 226.924 450.803 230.772C450.803 235.153 452.224 237.758 455.538 239.534C458.793 241.251 463.527 241.132 466.013 239.297C469.149 236.929 470.037 235.094 470.037 231.068C470.037 226.806 469.031 224.97 465.598 222.602C462.994 220.885 457.846 220.767 455.064 222.484Z" fill="url(#paint19_linear_238_195)"/>
<path d="M126.203 271.088C116.024 272.39 102.768 276.653 91.7012 282.218C78.4449 288.907 66.7865 297.491 35.658 323.481C19.0285 337.393 18.3184 338.044 17.3715 340.412C15.1227 345.858 19.9162 350.713 25.4791 348.641C26.2485 348.345 32.5807 343.194 39.5639 337.215C66.0764 314.482 83.4752 301.458 95.4887 295.419C119.752 283.165 140.643 281.093 163.368 288.611C172.067 291.512 185.915 298.616 204.024 309.509C228.11 324.013 238.999 329.223 253.676 333.485C266.4 337.156 270.128 337.63 286.58 337.57C308.062 337.57 313.921 336.327 352.21 323.658C374.698 316.199 388.783 312.706 405.827 310.16C410.265 309.568 414.526 308.68 415.355 308.325C418.669 306.845 419.853 302.05 417.604 299.267C415.532 296.603 412.988 296.307 402.986 297.669C383.753 300.215 368.544 304.003 342.623 312.588C311.909 322.711 303.565 324.546 287.468 324.546C277.052 324.605 273.264 324.191 263.204 321.823C246.93 318.034 235.685 312.824 207.871 296.189C179.406 279.139 167.214 273.989 149.461 271.325C143.188 270.377 132.831 270.259 126.203 271.088Z" fill="url(#paint20_linear_238_195)"/>
<path d="M449.265 274.521C445.832 276.061 444.057 279.198 443.998 283.52C443.998 287.723 445.359 289.795 449.146 291.394C456.603 294.472 463.823 288.552 462.048 280.856C460.686 274.877 454.769 271.917 449.265 274.521Z" fill="url(#paint21_linear_238_195)"/>
<path d="M435.713 317.975C430.209 319.81 427.368 322.237 425.356 326.796C421.805 334.906 424.528 343.194 432.044 347.042C435.121 348.582 436.068 348.818 440.329 348.759C443.288 348.7 446.01 348.345 447.312 347.812C449.975 346.628 453.467 343.076 454.946 339.938C456.603 336.623 456.544 330.999 454.887 327.684C453.289 324.546 449.383 320.402 446.543 318.922C443.643 317.442 438.672 317.028 435.713 317.975Z" fill="url(#paint22_linear_238_195)"/>
<path d="M113.006 326.677C93.4174 329.401 70.2781 342.129 49.151 361.843C42.1086 368.414 40.8066 373.032 44.5941 377.59C46.4879 379.781 47.9674 380.609 50.9855 381.201C54.7139 381.853 56.9035 380.846 62.1705 375.933C74.0064 364.803 89.7482 356.219 103.715 353.318C120.699 349.766 135.435 350.95 154.017 357.521C161.829 360.244 167.037 362.731 177.393 368.592C185.797 373.387 200.769 380.846 207.871 383.806C232.43 394.048 254.504 396.357 283.029 391.798C296.522 389.608 302.026 388.246 316.17 383.392C325.047 380.373 332.148 377.117 334.752 374.926C336.646 373.268 336.705 373.091 336.409 369.953C336.113 367.348 335.699 366.342 334.515 365.276C332.385 363.441 330.373 363.619 324.632 366.105C309.897 372.499 300.783 375.4 288.237 377.709C282.496 378.715 278.887 378.952 268.234 379.011C254.564 379.011 250.362 378.597 238.94 376.051C229.235 373.86 222.666 371.552 213.197 366.993C202.841 362.02 196.094 357.758 184.081 348.7C171.239 338.991 163.96 334.788 152.538 330.407C144.312 327.329 139.4 326.5 127.682 326.322C121.646 326.263 115.077 326.381 113.006 326.677Z" fill="url(#paint23_linear_238_195)"/>
<path d="M401.98 364.211C401.033 364.625 399.554 365.75 398.725 366.579C396.772 368.71 396.713 373.742 398.666 377.413C401.803 383.629 411.094 383.984 414.704 378.064C416.183 375.636 416.302 370.723 414.941 367.881C413.047 363.974 406.655 362.139 401.98 364.211Z" fill="url(#paint24_linear_238_195)"/>
<path d="M145.969 389.312C141.294 391.739 139.222 395.291 139.222 401.034C139.222 404.822 139.4 405.592 140.998 407.901C142.004 409.322 144.075 411.157 145.732 412.104C148.336 413.525 149.224 413.703 153.189 413.584C156.917 413.407 158.042 413.111 160.113 411.749C163.427 409.618 165.557 406.066 165.972 402.158C166.386 398.192 165.38 395.232 162.658 392.213C158.337 387.358 151.828 386.233 145.969 389.312Z" fill="url(#paint25_linear_238_195)"/>
<path d="M110.224 392.331C108.627 393.042 105.786 395.942 105.135 397.6C104.839 398.37 104.602 400.146 104.602 401.626C104.602 407.546 108.153 411.394 114.071 411.808C118.569 412.163 121.173 410.624 123.244 406.539C127.031 399.08 122.711 391.739 114.604 391.857C112.828 391.857 110.875 392.094 110.224 392.331Z" fill="url(#paint26_linear_238_195)"/>
<path d="M375.704 394.581C372.568 396.12 370.615 399.613 370.615 403.757C370.674 407.546 371.739 409.499 375.053 411.749C376.415 412.696 377.894 413.111 379.906 413.111C383.22 413.111 385.292 412.223 387.718 409.618C389.138 408.138 389.493 407.131 389.73 404.349C389.967 401.33 389.73 400.501 388.428 398.37C387.54 397.008 386.002 395.35 384.936 394.758C382.628 393.338 378.486 393.219 375.704 394.581Z" fill="url(#paint27_linear_238_195)"/>
<path d="M84.0669 398.31C81.4039 398.902 79.3326 400.382 77.9122 402.632C76.9654 404.112 76.7878 405.296 76.9062 408.197C77.0837 411.335 77.3796 412.163 78.8591 413.762C81.2855 416.248 83.3568 417.255 86.2566 417.255C91.0501 417.255 94.4234 414.709 95.7845 410.151C97.8558 403.283 91.2869 396.712 84.0669 398.31Z" fill="url(#paint28_linear_238_195)"/>
<path d="M197.337 405.474C190.294 407.131 185.856 412.104 185.264 418.971C184.672 425.484 187.395 430.397 193.076 433.002C200.414 436.436 209.114 433.831 213.552 426.845C215.446 423.826 215.86 419.623 214.617 415.301C213.67 411.749 208.64 406.954 204.675 405.77C201.124 404.704 200.592 404.704 197.337 405.474Z" fill="url(#paint29_linear_238_195)"/>
<path d="M338.362 424.122C334.752 425.602 333.45 426.549 332.148 428.799C329.071 433.949 330.846 440.58 335.995 443.125C339.309 444.842 342.209 444.842 345.464 443.125C352.033 439.692 352.565 429.391 346.47 425.602C344.398 424.3 339.96 423.53 338.362 424.122Z" fill="url(#paint30_linear_238_195)"/>
<path d="M150.348 432.055C147.922 432.588 145.377 434.601 144.134 436.969C142.596 439.869 142.714 445.553 144.43 448.039C148.395 453.959 157.272 453.959 161.237 448.039C162.894 445.612 163.072 440.106 161.592 436.969C159.876 433.298 154.727 430.989 150.348 432.055Z" fill="url(#paint31_linear_238_195)"/>
<path d="M236.632 440.935C227.874 442.77 222.429 450.94 223.139 461.182C223.494 466.806 224.974 470.121 228.643 473.495C232.549 477.048 235.981 478.468 241.13 478.468C244.799 478.468 245.864 478.232 249.356 476.456C256.162 472.963 259.653 467.102 259.653 459.169C259.653 453.782 257.759 449.756 253.439 445.73C248.882 441.586 242.491 439.751 236.632 440.935Z" fill="url(#paint32_linear_238_195)"/>
<path d="M291.551 445.197C286.047 448.335 285.16 457.689 289.894 462.07C294.924 466.687 302.322 465.681 306.287 459.879C307.47 458.103 307.648 457.215 307.47 453.9C307.115 447.329 303.446 443.895 296.818 443.895C294.747 443.895 292.971 444.309 291.551 445.197Z" fill="url(#paint33_linear_238_195)"/>
<defs>
<linearGradient id="paint0_linear_238_195" x1="245.039" y1="31.9152" x2="219.973" y2="4.09266" gradientUnits="userSpaceOnUse">
<stop stop-color="#67B1E5"/>
<stop offset="0.947041" stop-color="#220E77"/>
</linearGradient>
<linearGradient id="paint1_linear_238_195" x1="286.356" y1="71.8678" x2="266.335" y2="48.5301" gradientUnits="userSpaceOnUse">
<stop stop-color="#67B1E5"/>
<stop offset="0.947041" stop-color="#220E77"/>
</linearGradient>
<linearGradient id="paint2_linear_238_195" x1="377.371" y1="146.018" x2="340.58" y2="14.3055" gradientUnits="userSpaceOnUse">
<stop stop-color="#67B1E5"/>
<stop offset="0.947041" stop-color="#220E77"/>
</linearGradient>
<linearGradient id="paint3_linear_238_195" x1="329.874" y1="90.9952" x2="310.825" y2="69.8887" gradientUnits="userSpaceOnUse">
<stop stop-color="#67B1E5"/>
<stop offset="0.947041" stop-color="#220E77"/>
</linearGradient>
<linearGradient id="paint4_linear_238_195" x1="405.305" y1="93.9339" x2="392.347" y2="80.1448" gradientUnits="userSpaceOnUse">
<stop stop-color="#67B1E5"/>
<stop offset="0.947041" stop-color="#220E77"/>
</linearGradient>
<linearGradient id="paint5_linear_238_195" x1="378.36" y1="62.2965" x2="365.402" y2="48.5074" gradientUnits="userSpaceOnUse">
<stop stop-color="#67B1E5"/>
<stop offset="0.947041" stop-color="#220E77"/>
</linearGradient>
<linearGradient id="paint6_linear_238_195" x1="342.36" y1="41.2965" x2="329.402" y2="27.5074" gradientUnits="userSpaceOnUse">
<stop stop-color="#67B1E5"/>
<stop offset="0.947041" stop-color="#220E77"/>
</linearGradient>
<linearGradient id="paint7_linear_238_195" x1="297.36" y1="25.2965" x2="284.402" y2="11.5074" gradientUnits="userSpaceOnUse">
<stop stop-color="#67B1E5"/>
<stop offset="0.947041" stop-color="#220E77"/>
</linearGradient>
<linearGradient id="paint8_linear_238_195" x1="189.36" y1="24.2965" x2="176.402" y2="10.5074" gradientUnits="userSpaceOnUse">
<stop stop-color="#67B1E5"/>
<stop offset="0.947041" stop-color="#220E77"/>
</linearGradient>
<linearGradient id="paint9_linear_238_195" x1="139.36" y1="41.2965" x2="126.402" y2="27.5074" gradientUnits="userSpaceOnUse">
<stop stop-color="#67B1E5"/>
<stop offset="0.947041" stop-color="#220E77"/>
</linearGradient>
<linearGradient id="paint10_linear_238_195" x1="98.3598" y1="68.2965" x2="85.4024" y2="54.5074" gradientUnits="userSpaceOnUse">
<stop stop-color="#67B1E5"/>
<stop offset="0.947041" stop-color="#220E77"/>
</linearGradient>
<linearGradient id="paint11_linear_238_195" x1="69.1636" y1="96.3276" x2="55.792" y2="81.4989" gradientUnits="userSpaceOnUse">
<stop stop-color="#67B1E5"/>
<stop offset="0.947041" stop-color="#220E77"/>
</linearGradient>
<linearGradient id="paint12_linear_238_195" x1="361.016" y1="107.526" x2="347.238" y2="92.1893" gradientUnits="userSpaceOnUse">
<stop stop-color="#67B1E5"/>
<stop offset="0.947041" stop-color="#220E77"/>
</linearGradient>
<linearGradient id="paint13_linear_238_195" x1="389.987" y1="198.344" x2="361.173" y2="60.4472" gradientUnits="userSpaceOnUse">
<stop stop-color="#67B1E5"/>
<stop offset="0.947041" stop-color="#220E77"/>
</linearGradient>
<linearGradient id="paint14_linear_238_195" x1="36.0646" y1="146.169" x2="23.0897" y2="131.264" gradientUnits="userSpaceOnUse">
<stop stop-color="#67B1E5"/>
<stop offset="0.947041" stop-color="#220E77"/>
</linearGradient>
<linearGradient id="paint15_linear_238_195" x1="287.948" y1="239.851" x2="257.297" y2="119.433" gradientUnits="userSpaceOnUse">
<stop stop-color="#67B1E5"/>
<stop offset="0.947041" stop-color="#220E77"/>
</linearGradient>
<linearGradient id="paint16_linear_238_195" x1="19.003" y1="192.927" x2="6.2403" y2="177.967" gradientUnits="userSpaceOnUse">
<stop stop-color="#67B1E5"/>
<stop offset="0.947041" stop-color="#220E77"/>
</linearGradient>
<linearGradient id="paint17_linear_238_195" x1="339.572" y1="283.485" x2="321.941" y2="175.23" gradientUnits="userSpaceOnUse">
<stop stop-color="#67B1E5"/>
<stop offset="0.947041" stop-color="#220E77"/>
</linearGradient>
<linearGradient id="paint18_linear_238_195" x1="14.7" y1="237.952" x2="1.79612" y2="223.239" gradientUnits="userSpaceOnUse">
<stop stop-color="#67B1E5"/>
<stop offset="0.947041" stop-color="#220E77"/>
</linearGradient>
<linearGradient id="paint19_linear_238_195" x1="466.137" y1="238.928" x2="452.254" y2="223.531" gradientUnits="userSpaceOnUse">
<stop stop-color="#67B1E5"/>
<stop offset="0.947041" stop-color="#220E77"/>
</linearGradient>
<linearGradient id="paint20_linear_238_195" x1="337.247" y1="341.781" x2="318.252" y2="232.56" gradientUnits="userSpaceOnUse">
<stop stop-color="#67B1E5"/>
<stop offset="0.947041" stop-color="#220E77"/>
</linearGradient>
<linearGradient id="paint21_linear_238_195" x1="458.604" y1="290.48" x2="445.317" y2="275.807" gradientUnits="userSpaceOnUse">
<stop stop-color="#67B1E5"/>
<stop offset="0.947041" stop-color="#220E77"/>
</linearGradient>
<linearGradient id="paint22_linear_238_195" x1="449.6" y1="345.841" x2="427.444" y2="320.099" gradientUnits="userSpaceOnUse">
<stop stop-color="#67B1E5"/>
<stop offset="0.947041" stop-color="#220E77"/>
</linearGradient>
<linearGradient id="paint23_linear_238_195" x1="276.916" y1="387.698" x2="257.853" y2="294.646" gradientUnits="userSpaceOnUse">
<stop stop-color="#67B1E5"/>
<stop offset="0.947041" stop-color="#220E77"/>
</linearGradient>
<linearGradient id="paint24_linear_238_195" x1="412.107" y1="380.525" x2="398.613" y2="365.584" gradientUnits="userSpaceOnUse">
<stop stop-color="#67B1E5"/>
<stop offset="0.947041" stop-color="#220E77"/>
</linearGradient>
<linearGradient id="paint25_linear_238_195" x1="160.619" y1="411.182" x2="142.197" y2="389.817" gradientUnits="userSpaceOnUse">
<stop stop-color="#67B1E5"/>
<stop offset="0.947041" stop-color="#220E77"/>
</linearGradient>
<linearGradient id="paint26_linear_238_195" x1="120.57" y1="409.988" x2="106.352" y2="393.98" gradientUnits="userSpaceOnUse">
<stop stop-color="#67B1E5"/>
<stop offset="0.947041" stop-color="#220E77"/>
</linearGradient>
<linearGradient id="paint27_linear_238_195" x1="385.918" y1="411.289" x2="372.041" y2="395.919" gradientUnits="userSpaceOnUse">
<stop stop-color="#67B1E5"/>
<stop offset="0.947041" stop-color="#220E77"/>
</linearGradient>
<linearGradient id="paint28_linear_238_195" x1="92.2585" y1="415.461" x2="78.627" y2="400.046" gradientUnits="userSpaceOnUse">
<stop stop-color="#67B1E5"/>
<stop offset="0.947041" stop-color="#220E77"/>
</linearGradient>
<linearGradient id="paint29_linear_238_195" x1="209.214" y1="431.742" x2="188.235" y2="407.706" gradientUnits="userSpaceOnUse">
<stop stop-color="#67B1E5"/>
<stop offset="0.947041" stop-color="#220E77"/>
</linearGradient>
<linearGradient id="paint30_linear_238_195" x1="346.657" y1="442.497" x2="332.057" y2="426.397" gradientUnits="userSpaceOnUse">
<stop stop-color="#67B1E5"/>
<stop offset="0.947041" stop-color="#220E77"/>
</linearGradient>
<linearGradient id="paint31_linear_238_195" x1="158.636" y1="450.545" x2="143.856" y2="434.846" gradientUnits="userSpaceOnUse">
<stop stop-color="#67B1E5"/>
<stop offset="0.947041" stop-color="#220E77"/>
</linearGradient>
<linearGradient id="paint32_linear_238_195" x1="252.236" y1="474.926" x2="225.206" y2="445.588" gradientUnits="userSpaceOnUse">
<stop stop-color="#67B1E5"/>
<stop offset="0.947041" stop-color="#220E77"/>
</linearGradient>
<linearGradient id="paint33_linear_238_195" x1="303.33" y1="463.003" x2="288.316" y2="446.421" gradientUnits="userSpaceOnUse">
<stop stop-color="#67B1E5"/>
<stop offset="0.947041" stop-color="#220E77"/>
</linearGradient>
</defs>
</svg>
