<svg width="12" height="12" viewBox="0 0 12 12" fill="none" xmlns="http://www.w3.org/2000/svg">
<path d="M9.14062 1.45301C9.1747 1.47748 9.1747 1.47748 9.20947 1.50244C9.70304 1.86491 10.1467 2.28758 10.5 2.78894C10.5197 2.81583 10.5394 2.84272 10.5591 2.8696C11.3541 3.98168 11.671 5.45041 11.4722 6.79778C11.4284 7.05846 11.3669 7.31541 11.2969 7.57019C11.2912 7.5909 11.2855 7.6116 11.2797 7.63293C11.0789 8.34339 10.6989 9.00583 10.2187 9.56238C10.1926 9.59315 10.1926 9.59315 10.1658 9.62455C9.90567 9.92181 9.62463 10.1975 9.30469 10.4296C9.2921 10.4388 9.27952 10.448 9.26655 10.4574C8.77 10.8178 8.2263 11.0908 7.64062 11.2733C7.6148 11.2815 7.6148 11.2815 7.58845 11.2899C7.08371 11.4488 6.55976 11.5131 6.03223 11.5136C6.01412 11.5136 5.99602 11.5136 5.97737 11.5136C5.66038 11.5132 5.35156 11.494 5.03906 11.4374C5.01813 11.4336 4.99719 11.4298 4.97562 11.4259C4.40855 11.3192 3.76641 11.1412 3.28839 10.8073C3.19403 10.7616 3.10311 10.7943 3.00711 10.8244C2.93025 10.8511 2.85386 10.8789 2.77753 10.9071C2.7347 10.9227 2.7347 10.9227 2.69101 10.9386C2.61497 10.9663 2.539 10.9941 2.46305 11.022C2.38795 11.0496 2.31279 11.077 2.23764 11.1044C2.20794 11.1152 2.17823 11.1261 2.14853 11.1369C2.08939 11.1585 2.03023 11.1801 1.97106 11.2016C1.82871 11.2534 1.68669 11.3058 1.5452 11.3599C1.51898 11.3698 1.49276 11.3797 1.46575 11.3898C1.41706 11.4081 1.36849 11.4268 1.32007 11.4458C1.13755 11.5138 0.951305 11.5495 0.766113 11.4711C0.629235 11.3918 0.545128 11.2799 0.492187 11.1327C0.440346 10.8792 0.571307 10.6238 0.657715 10.3915C0.674614 10.345 0.691472 10.2986 0.708292 10.2521C0.786132 10.0376 0.865695 9.82384 0.945723 9.61021C0.978713 9.52205 1.0115 9.43382 1.0443 9.34558C1.06751 9.28355 1.09114 9.22168 1.1148 9.15981C1.12899 9.12192 1.14316 9.08402 1.15732 9.04611C1.16394 9.02917 1.17056 9.01222 1.17738 8.99476C1.22147 8.87508 1.22596 8.79119 1.17626 8.67353C1.16874 8.66056 1.16122 8.64758 1.15347 8.63422C1.14075 8.61158 1.14075 8.61158 1.12778 8.58848C1.11865 8.57245 1.10951 8.55643 1.1001 8.53992C0.679435 7.77047 0.480465 6.88376 0.484863 6.01013C0.484913 5.99186 0.484964 5.97359 0.485016 5.95477C0.488752 5.10673 0.687526 4.30253 1.05469 3.53894C1.06259 3.52249 1.0705 3.50604 1.07864 3.48909C1.26418 3.10903 1.50302 2.75581 1.78125 2.43738C1.79663 2.41943 1.81201 2.40149 1.82785 2.383C2.09096 2.08272 2.37312 1.80618 2.69531 1.57019C2.71571 1.55515 2.7361 1.5401 2.75711 1.5246C3.47132 1.01165 4.29075 0.683736 5.15625 0.538944C5.17999 0.534774 5.17999 0.534774 5.2042 0.530521C6.53712 0.305804 8.04631 0.66336 9.14062 1.45301Z" fill="#555453"/>
</svg>
