<svg width="27" height="27" viewBox="0 0 27 27" fill="none" xmlns="http://www.w3.org/2000/svg">
<path d="M18.2647 16.0666C23.0818 16.0666 27 12.4629 27 8.03329C27 3.60371 23.0818 0 18.2647 0C15.228 0 12.3994 1.48976 10.8254 3.861C9.70571 3.22729 8.44941 2.89535 7.14706 2.89535C3.20665 2.89535 0 5.84947 0 9.48176C0 13.1125 3.20665 16.0666 7.14706 16.0666C7.44247 16.0666 7.74265 16.0459 8.05712 16.0078C9.09265 16.9417 10.4744 17.4706 11.9118 17.4706C13.5032 17.4706 14.9755 16.8559 16.0285 15.7712C16.8035 15.9697 17.5389 16.0666 18.2647 16.0666ZM15.4774 13.9526L15.1406 14.3783C14.3926 15.3201 13.1855 15.8824 11.9118 15.8824C10.7619 15.8824 9.666 15.4218 8.90206 14.6165L8.60982 14.31L8.19053 14.3831C7.85065 14.4418 7.506 14.4784 7.14706 14.4784C4.08176 14.4784 1.58824 12.2374 1.58824 9.48335C1.58824 6.72777 4.08176 4.48518 7.14706 4.48518C8.40494 4.48518 9.60723 4.87588 10.6237 5.61759L11.3734 6.16235L11.7974 5.33647C12.9695 3.06053 15.5075 1.58824 18.2647 1.58824C22.2051 1.58824 25.4118 4.47882 25.4118 8.03488C25.4118 11.5878 22.2051 14.4799 18.2647 14.4799C17.5452 14.4799 16.8019 14.3608 15.9951 14.1131L15.4774 13.9526ZM18.2647 16.6765C16.5129 16.6765 15.0882 18.1011 15.0882 19.8529C15.0882 21.6048 16.5129 23.0294 18.2647 23.0294C20.0165 23.0294 21.4412 21.6048 21.4412 19.8529C21.4412 18.1011 20.0165 16.6765 18.2647 16.6765ZM18.2647 21.4412C17.3896 21.4412 16.6765 20.7296 16.6765 19.8529C16.6765 18.9762 17.3896 18.2647 18.2647 18.2647C19.1398 18.2647 19.8529 18.9762 19.8529 19.8529C19.8529 20.7296 19.1398 21.4412 18.2647 21.4412ZM24.2206 22.2353C23.1263 22.2353 22.2353 23.1263 22.2353 24.2206C22.2353 25.3149 23.1263 26.2059 24.2206 26.2059C25.3149 26.2059 26.2059 25.3149 26.2059 24.2206C26.2059 23.1263 25.3149 22.2353 24.2206 22.2353ZM23.8235 24.2206C23.8235 24.0014 24.0014 23.8235 24.2206 23.8235C24.4398 23.8235 24.6176 24.0014 24.6176 24.2206C24.6176 24.6574 23.8235 24.6574 23.8235 24.2206Z" fill="#555453"/>
</svg>
