<svg width="12" height="12" viewBox="0 0 12 12" fill="none" xmlns="http://www.w3.org/2000/svg">
<path d="M4.77556 0.981039C4.79538 0.980969 4.8152 0.980899 4.83562 0.980828C4.90159 0.980626 4.96756 0.980589 5.03352 0.980554C5.08101 0.980445 5.1285 0.980327 5.17598 0.980201C5.3047 0.979894 5.43342 0.979743 5.56214 0.979638C5.64269 0.97957 5.72324 0.979473 5.80379 0.979369C6.05619 0.979048 6.30859 0.978822 6.56099 0.978731C6.85164 0.978626 7.14229 0.978215 7.43294 0.977536C7.65807 0.977028 7.88319 0.976793 8.10832 0.976762C8.24256 0.976737 8.3768 0.9766 8.51104 0.97618C8.63745 0.975791 8.76385 0.975744 8.89027 0.975949C8.93642 0.975967 8.98257 0.975866 9.02872 0.975633C9.59834 0.972926 10.0847 1.08572 10.5137 1.48815C10.8596 1.84691 11.0194 2.28354 11.0189 2.77666C11.019 2.80951 11.019 2.80951 11.0191 2.84303C11.0193 2.9162 11.0194 2.98937 11.0194 3.06253C11.0195 3.11509 11.0196 3.16766 11.0197 3.22022C11.0201 3.36289 11.0202 3.50556 11.0203 3.64822C11.0204 3.73746 11.0205 3.8267 11.0206 3.91594C11.0209 4.16344 11.0211 4.41095 11.0212 4.65845C11.0212 4.67427 11.0212 4.6901 11.0212 4.7064C11.0212 4.72225 11.0212 4.73811 11.0212 4.75445C11.0212 4.78658 11.0212 4.8187 11.0213 4.85083C11.0213 4.86677 11.0213 4.8827 11.0213 4.89912C11.0214 5.15698 11.0218 5.41484 11.0223 5.6727C11.0229 5.938 11.0232 6.2033 11.0232 6.46861C11.0232 6.61734 11.0233 6.76606 11.0238 6.91479C11.0242 7.05484 11.0242 7.19489 11.024 7.33494C11.024 7.38611 11.0241 7.43729 11.0243 7.48847C11.0269 8.0872 10.92 8.58073 10.4953 9.03182C10.1343 9.37222 9.69098 9.52164 9.20068 9.51705C9.17906 9.51694 9.15744 9.51683 9.13517 9.51673C9.0823 9.51645 9.02943 9.51607 8.97656 9.51558C8.97604 9.53714 8.97604 9.53714 8.97552 9.55914C8.96106 9.95473 8.71035 10.3224 8.43209 10.5856C8.08267 10.8814 7.68076 11.0194 7.22443 11.0189C7.1947 11.019 7.1947 11.019 7.16437 11.0191C7.0984 11.0193 7.03243 11.0193 6.96646 11.0194C6.91898 11.0195 6.87149 11.0196 6.82401 11.0197C6.69529 11.02 6.56657 11.0202 6.43784 11.0203C6.35729 11.0203 6.27674 11.0204 6.19619 11.0205C5.9438 11.0209 5.6914 11.0211 5.439 11.0212C5.14835 11.0213 4.8577 11.0217 4.56705 11.0224C4.34192 11.0229 4.1168 11.0231 3.89167 11.0232C3.75743 11.0232 3.62319 11.0233 3.48895 11.0237C3.36254 11.0241 3.23613 11.0242 3.10972 11.024C3.06357 11.0239 3.01742 11.024 2.97127 11.0243C2.40165 11.027 1.91524 10.9142 1.48626 10.5118C1.14732 10.1602 0.98054 9.72689 0.981077 9.24194C0.981008 9.22205 0.980938 9.20215 0.980866 9.18165C0.980664 9.11529 0.980627 9.04893 0.980592 8.98256C0.980484 8.93485 0.980366 8.88713 0.98024 8.83942C0.979933 8.70997 0.979781 8.58052 0.979677 8.45107C0.979608 8.37008 0.979512 8.28909 0.979407 8.20809C0.979087 7.95435 0.97886 7.7006 0.97877 7.44685C0.978665 7.15458 0.978254 6.86231 0.977574 6.57004C0.977066 6.34372 0.976831 6.1174 0.9768 5.89108C0.976775 5.7561 0.976639 5.62113 0.976218 5.48616C0.97583 5.35904 0.975782 5.23192 0.975987 5.10479C0.976005 5.05838 0.975905 5.01196 0.975672 4.96555C0.973239 4.45066 1.05041 4.02213 1.38281 3.60933C1.3938 3.5945 1.4048 3.57966 1.41613 3.56438C1.63342 3.28509 2.00808 3.08737 2.34988 3.00984C2.5651 2.98555 2.78378 2.99484 2.99999 2.99996C2.99926 2.97716 2.99926 2.97716 2.99851 2.9539C2.98282 2.39336 3.07494 1.94564 3.45263 1.51671C3.8123 1.15338 4.26957 0.980474 4.77556 0.981039ZM4.17187 2.27339C4.03969 2.44425 3.99983 2.61043 4.00488 2.82271C4.00509 2.83985 4.0053 2.857 4.00552 2.87467C4.00606 2.91643 4.0069 2.95819 4.00781 2.99996C4.02586 2.99999 4.04392 3.00002 4.06253 3.00006C4.50311 3.00093 4.9437 3.00232 5.38428 3.00427C5.59735 3.0052 5.81042 3.00596 6.02349 3.00631C6.20933 3.00661 6.39517 3.00725 6.581 3.00827C6.67929 3.00879 6.77757 3.00916 6.87585 3.00914C6.96862 3.00912 7.06137 3.00955 7.15414 3.0103C7.18794 3.01049 7.22174 3.01054 7.25554 3.0104C7.69675 3.0089 8.10497 3.1489 8.43749 3.44527C8.4533 3.45889 8.4691 3.47252 8.48538 3.48656C8.76059 3.74047 8.95607 4.14111 8.98269 4.51604C8.98282 4.54577 8.98295 4.57549 8.98308 4.60612C8.98322 4.62284 8.98336 4.63956 8.98349 4.65678C8.98389 4.71223 8.98396 4.76768 8.98403 4.82314C8.98425 4.86311 8.98449 4.90309 8.98474 4.94306C8.98538 5.05118 8.98574 5.1593 8.98604 5.26741C8.98641 5.38055 8.98704 5.49369 8.98764 5.60683C8.98873 5.8209 8.98959 6.03497 8.99037 6.24903C8.99127 6.49282 8.99243 6.7366 8.99361 6.98039C8.99603 7.4817 8.99812 7.98301 8.99999 8.48433C9.06753 8.48536 9.13506 8.48612 9.2026 8.48671C9.23111 8.48719 9.23111 8.48719 9.26019 8.48768C9.46932 8.48906 9.63 8.4341 9.78442 8.28987C9.94213 8.11446 9.99147 7.93499 9.99064 7.70363C9.9908 7.67096 9.9908 7.67096 9.99096 7.63764C9.99126 7.56477 9.99122 7.49191 9.99118 7.41905C9.99132 7.36676 9.99148 7.31447 9.99166 7.26218C9.99207 7.1202 9.99218 6.97822 9.99221 6.83623C9.99224 6.74749 9.99234 6.65876 9.99247 6.57002C9.99288 6.27633 9.9931 5.98263 9.99306 5.68894C9.99306 5.66521 9.99306 5.66521 9.99306 5.641C9.99305 5.61724 9.99305 5.61724 9.99305 5.593C9.99303 5.33642 9.99348 5.07985 9.99414 4.82328C9.99481 4.55954 9.99513 4.2958 9.9951 4.03206C9.99508 3.88411 9.99522 3.73616 9.99571 3.5882C9.99617 3.449 9.99617 3.3098 9.99583 3.1706C9.99578 3.1196 9.99589 3.0686 9.99618 3.0176C9.99654 2.94779 9.99632 2.878 9.99596 2.80819C9.9962 2.78817 9.99644 2.76816 9.99669 2.74754C9.9944 2.54617 9.9284 2.36381 9.78991 2.21553C9.62196 2.06453 9.44785 2.00842 9.22324 2.00931C9.20357 2.00921 9.1839 2.0091 9.16363 2.00899C9.09789 2.00869 9.03216 2.00873 8.96642 2.00877C8.91921 2.00863 8.872 2.00847 8.82479 2.00829C8.69666 2.00788 8.56853 2.00777 8.44039 2.00774C8.36029 2.00771 8.28019 2.00761 8.20009 2.00748C7.9205 2.00705 7.64092 2.00686 7.36134 2.00689C7.10096 2.00692 6.84058 2.00643 6.58019 2.00569C6.35646 2.00507 6.13273 2.00482 5.909 2.00485C5.77546 2.00487 5.64192 2.00473 5.50838 2.00424C5.38271 2.00378 5.25706 2.00378 5.1314 2.00412C5.08539 2.00417 5.03938 2.00406 4.99337 2.00377C4.66604 2.00189 4.4055 2.01738 4.17187 2.27339Z" fill="#555453"/>
</svg>
