<svg width="72" height="74" viewBox="0 0 72 74" fill="none" xmlns="http://www.w3.org/2000/svg">
<path d="M68.3331 39.2046C68.3331 38.7994 71.2473 33.4974 71.2473 33.4974L65.9893 33.6084C63.63 30.1134 59.1979 28.3736 54.9362 29.6178C50.0421 31.0452 47.0892 35.8903 47.8945 40.7947L47.8894 40.7999C45.4733 41.1432 42.2441 38.1515 38.1683 32.4778C34.921 39.8422 37.1409 46.298 39.3505 48.3191C36.2839 49.5917 29.6526 49.5168 26.5732 48.8457C34.2318 57.8492 41.3691 58.5926 48.2611 58.0867C50.801 58.6133 53.4985 58.5565 56.1649 57.7795C64.8303 55.2499 70.7827 48.5876 68.3201 39.9171C68.3331 39.6641 68.3331 39.4241 68.3331 39.2046ZM61.6346 38.66C60.184 39.0885 58.661 38.2496 58.2428 36.7989C57.8144 35.3482 58.6507 33.8278 60.104 33.4071C61.5546 32.9812 63.0724 33.8149 63.4957 35.2656C63.9191 36.7163 63.0802 38.2367 61.6346 38.66Z" fill="#555453"/>
<path d="M60.6615 34.6639C60.7467 34.7517 60.8189 34.8523 60.8551 34.9762C60.9712 35.3789 60.7415 35.7997 60.3388 35.9184C60.1065 35.9855 59.8742 35.9261 59.6935 35.7971C59.6677 35.9803 59.678 36.1739 59.7348 36.3624C59.9465 37.0877 60.7028 37.5033 61.4281 37.2916C62.1535 37.0774 62.5716 36.3211 62.36 35.5931C62.1483 34.8704 61.3868 34.4522 60.6615 34.6639Z" fill="#555453"/>
<path d="M26.6764 24.5092L49.069 24.7854H49.1335C53.8444 24.7673 57.6776 20.9187 57.6776 16.2104C57.6776 11.4789 53.8315 7.63283 49.1026 7.63283C48.6379 7.63283 48.181 7.67155 47.7345 7.74383L47.4041 7.79803L47.3576 7.46763C46.8026 3.20852 43.1476 0 38.8497 0C34.57 0 30.9149 3.19562 30.347 7.43407L30.3031 7.75673L29.9805 7.71027C29.6062 7.65606 29.2164 7.63025 28.8215 7.63025C24.0926 7.63025 20.2439 11.4789 20.2439 16.2078C20.2439 20.1185 22.8897 23.5309 26.6764 24.5092ZM28.8241 9.52749C29.5339 9.52749 30.2463 9.64364 30.9407 9.87596L32.2623 10.3174L32.1823 8.77892C32.1771 8.71439 32.172 8.64727 32.172 8.575C32.172 4.89152 35.1663 1.89466 38.8523 1.89466C42.5384 1.89466 45.5327 4.89152 45.5327 8.575C45.5327 8.66534 45.5275 8.75052 45.5223 8.83829L45.4217 10.4516L46.7846 9.94565C47.5409 9.66688 48.3204 9.52232 49.0974 9.52232C52.7835 9.52232 55.7777 12.5192 55.7777 16.2027C55.7777 19.8681 52.7989 22.8649 49.1284 22.883H28.4782L27.9851 22.8236C24.6527 22.4106 22.1437 19.5661 22.1437 16.2078C22.1437 12.5243 25.1406 9.52749 28.8241 9.52749Z" fill="#555453"/>
<path d="M26.0363 58.9691C25.6336 58.9691 25.2283 59.0026 24.836 59.0671L24.5495 59.1188L24.5082 58.8271C24.0229 55.0971 20.8195 52.2861 17.0534 52.2861C13.3054 52.2861 10.1021 55.0868 9.60388 58.8013L9.56516 59.0826L9.2838 59.0387C8.9534 58.9897 8.61267 58.9691 8.26678 58.9691C4.12383 58.9691 0.752686 62.3402 0.752686 66.4857C0.752686 69.9111 3.06809 72.9028 6.38503 73.7572L26.013 73.9998H26.0673C30.1973 73.9843 33.553 70.6132 33.553 66.4857C33.553 62.3376 30.1792 58.9691 26.0363 58.9691ZM26.0621 72.3401H7.96219L7.5337 72.2859C4.61427 71.9193 2.41761 69.4258 2.41761 66.4831C2.41761 63.254 5.04535 60.6262 8.27194 60.6262C8.89403 60.6262 9.51612 60.7269 10.1279 60.9334L11.2843 61.318L11.2094 59.9732C11.2043 59.919 11.2017 59.857 11.2017 59.7976C11.2017 56.571 13.8294 53.9433 17.056 53.9433C20.2852 53.9433 22.9129 56.571 22.9129 59.7976C22.9129 59.8725 22.9078 59.9551 22.9026 60.0274L22.8123 61.4419L24.0126 61.0005C24.6734 60.7553 25.3574 60.6288 26.0389 60.6288C29.2655 60.6288 31.8932 63.2566 31.8932 66.4857C31.8906 69.6994 29.2758 72.3272 26.0621 72.3401Z" fill="#555453"/>
</svg>
