<svg width="12" height="12" viewBox="0 0 12 12" fill="none" xmlns="http://www.w3.org/2000/svg">
<g clip-path="url(#clip0_296_1034)">
<path d="M2.6868 0.363434C2.72833 0.36343 2.76985 0.363395 2.81138 0.36333C2.89819 0.363298 2.98499 0.363588 3.0718 0.364126C3.18019 0.364781 3.28858 0.364723 3.39698 0.364438C4.97198 0.361136 6.58073 0.555844 8.0408 1.17697C8.06107 1.18555 8.08134 1.19413 8.10222 1.20297C8.1515 1.22384 8.20076 1.24474 8.25 1.26569C8.25698 2.0593 8.26235 2.8529 8.26556 3.64654C8.26594 3.74027 8.26634 3.834 8.26674 3.92772C8.26682 3.94638 8.2669 3.96504 8.26698 3.98427C8.26831 4.28627 8.27071 4.58825 8.27351 4.89024C8.27636 5.20019 8.27805 5.51013 8.27867 5.82009C8.27909 6.01132 8.28041 6.20249 8.28288 6.3937C8.28469 6.54041 8.28488 6.68708 8.28446 6.8338C8.28455 6.89392 8.28516 6.95404 8.28632 7.01415C8.29451 7.45736 8.29451 7.45736 8.2203 7.56763C8.14036 7.64747 8.04825 7.68905 7.94532 7.73444C7.90582 7.76299 7.86703 7.79259 7.82959 7.82379C7.81098 7.83902 7.79237 7.85425 7.7732 7.86993C7.75265 7.88709 7.73211 7.90426 7.71094 7.92194C7.69846 7.9323 7.68598 7.94266 7.67313 7.95334C7.20131 8.34634 6.78247 8.79346 6.54053 9.36627C6.53419 9.38107 6.52786 9.39587 6.52133 9.41112C6.40228 9.71059 6.3858 10.017 6.375 10.3345C6.34449 11.23 6.34449 11.23 6.08716 11.4968C5.90318 11.6544 5.6773 11.6476 5.44625 11.6313C5.07591 11.5898 4.7573 11.3663 4.5 11.1094C4.48538 11.0951 4.47076 11.0807 4.45569 11.0659C4.06521 10.6535 3.97456 10.1022 3.97705 9.5567C3.97713 9.52706 3.97713 9.52706 3.97721 9.49682C3.97958 8.91875 4.0594 8.3658 4.25639 7.81968C4.2618 7.80464 4.26721 7.78961 4.27279 7.77411C4.28599 7.73744 4.29924 7.70078 4.3125 7.66412C4.28226 7.66399 4.25202 7.66385 4.22087 7.66371C3.93437 7.66236 3.64787 7.66065 3.36138 7.6586C3.21413 7.65756 3.06688 7.65663 2.91963 7.656C2.77723 7.65539 2.63484 7.65444 2.49244 7.65327C2.43841 7.65288 2.38438 7.65261 2.33035 7.65246C1.64324 7.6504 1.06206 7.53325 0.551424 7.0466C0.133328 6.60783 -0.0159495 6.09141 -0.00842847 5.5C0.00162664 5.19112 0.060291 4.8875 0.114461 4.58392C0.130858 4.49146 0.146701 4.39891 0.162625 4.30637C0.189369 4.15144 0.216504 3.99657 0.243904 3.84175C0.275395 3.66379 0.30633 3.48575 0.336958 3.30765C0.366726 3.13458 0.396809 2.96157 0.427058 2.78859C0.439805 2.71569 0.452459 2.64278 0.465036 2.56986C0.479881 2.48391 0.495008 2.39801 0.51034 2.31215C0.518462 2.26632 0.526325 2.22045 0.534175 2.17458C0.639873 1.58918 0.897233 1.05783 1.39362 0.709045C1.48278 0.65038 1.57551 0.600527 1.67139 0.553772C1.68606 0.54651 1.70074 0.539247 1.71586 0.531765C2.03088 0.388041 2.34659 0.360933 2.6868 0.363434Z" fill="#555453"/>
<path d="M9.85598 0.488119C9.87113 0.487965 9.88627 0.487811 9.90187 0.487652C9.95187 0.487191 10.0019 0.486917 10.0519 0.486683C10.0776 0.486539 10.0776 0.486539 10.1039 0.486393C10.1949 0.485905 10.2859 0.485569 10.377 0.485349C10.4704 0.485091 10.5638 0.484286 10.6572 0.483353C10.7295 0.482736 10.8018 0.482544 10.8742 0.48246C10.9085 0.482347 10.9429 0.482077 10.9773 0.481639C11.2731 0.478107 11.5184 0.521558 11.7422 0.726642C11.8775 0.860082 11.9914 1.02803 12.003 1.2228C12.0031 1.24134 12.0032 1.25987 12.0032 1.27897C12.0033 1.30046 12.0035 1.32194 12.0036 1.34408C12.0036 1.3676 12.0036 1.39112 12.0036 1.41535C12.0038 1.45293 12.0038 1.45293 12.0039 1.49127C12.0042 1.5755 12.0044 1.65974 12.0045 1.74398C12.0047 1.80426 12.0049 1.86455 12.0051 1.92484C12.0057 2.10597 12.006 2.28711 12.0063 2.46825C12.0064 2.51944 12.0065 2.57063 12.0066 2.62182C12.0072 2.93994 12.0077 3.25805 12.008 3.57616C12.0081 3.64983 12.0081 3.72349 12.0082 3.79715C12.0082 3.81546 12.0082 3.83376 12.0083 3.85263C12.0086 4.14896 12.0093 4.44529 12.0103 4.74162C12.0113 5.04609 12.0119 5.35056 12.012 5.65503C12.0121 5.82589 12.0123 5.99673 12.0131 6.16759C12.0138 6.32841 12.014 6.48923 12.0137 6.65006C12.0137 6.70897 12.0139 6.76789 12.0143 6.82681C12.0188 7.50322 12.0188 7.50322 11.7543 7.78032C11.5649 7.93414 11.3463 8.01796 11.1027 8.01948C11.0588 8.01982 11.0588 8.01982 11.014 8.02016C10.9823 8.02028 10.9505 8.02038 10.9187 8.02047C10.9025 8.02053 10.8864 8.0206 10.8697 8.02067C10.7842 8.02102 10.6987 8.02123 10.6132 8.02134C10.5254 8.02146 10.4377 8.02203 10.3499 8.02269C10.2819 8.02313 10.2139 8.02325 10.1459 8.02329C10.1136 8.02336 10.0813 8.02354 10.049 8.02386C9.73546 8.02665 9.47614 7.97425 9.23419 7.76384C8.95329 7.47138 8.98329 7.12064 8.98521 6.74197C8.98509 6.68158 8.98492 6.62118 8.9847 6.56079C8.98427 6.4143 8.98447 6.26782 8.98489 6.12133C8.98522 6.00222 8.98531 5.88311 8.98523 5.76399C8.98522 5.74699 8.98521 5.72999 8.9852 5.71247C8.98518 5.67793 8.98515 5.64338 8.98513 5.60883C8.98493 5.30392 8.98531 4.99901 8.98601 4.6941C8.98669 4.39865 8.98685 4.10321 8.98649 3.80776C8.9861 3.48547 8.98601 3.16319 8.98642 2.8409C8.98646 2.8065 8.9865 2.77211 8.98655 2.73771C8.98657 2.72078 8.98659 2.70386 8.98661 2.68643C8.98674 2.56752 8.98666 2.44861 8.98651 2.3297C8.98631 2.16952 8.98661 2.00936 8.98726 1.84918C8.98742 1.79048 8.98742 1.73176 8.98725 1.67306C8.98705 1.59278 8.98742 1.51253 8.98794 1.43226C8.98775 1.40915 8.98755 1.38604 8.98736 1.36223C8.99047 1.10074 9.09284 0.897063 9.27246 0.710529C9.43879 0.556525 9.63225 0.490008 9.85598 0.488119Z" fill="#555453"/>
</g>
<defs>
<clipPath id="clip0_296_1034">
<rect width="12" height="12" fill="white"/>
</clipPath>
</defs>
</svg>
