<svg width="8" height="30" viewBox="0 0 8 30" fill="none" xmlns="http://www.w3.org/2000/svg">
<path d="M2.54114 20.2965C2.58198 20.5272 2.71617 20.7491 2.94427 20.962C3.17053 21.1745 3.43954 21.2812 3.74986 21.2812C4.47323 21.2812 4.87575 20.9526 4.95805 20.2965L7.3755 4.36014C7.41695 4.07754 7.43772 3.67834 7.43772 3.16395C7.43772 2.36602 7.11817 1.63975 6.47717 0.983086C5.83678 0.327539 4.92752 0 3.7498 0C2.52953 0 1.61105 0.336445 0.991487 1.00934C0.37186 1.66594 0.0620117 2.38389 0.0620117 3.164C0.0620117 3.64283 0.0814753 4.0415 0.122929 4.3602L2.54114 20.2965Z" fill="#555453"/>
<path d="M6.4157 24.496C5.7131 23.8932 4.82398 23.5913 3.74993 23.5913C2.69671 23.5913 1.80759 23.9027 1.0843 24.5227C0.361 25.1433 0 25.8962 0 26.7826C0 27.6334 0.361 28.3869 1.0843 29.043C1.80759 29.6814 2.69678 30 3.74993 30C4.80322 30 5.69111 29.6903 6.4157 29.0692C7.13784 28.4496 7.5 27.6868 7.5 26.7826C7.5 25.8784 7.13784 25.1166 6.4157 24.496Z" fill="#555453"/>
</svg>
