<svg width="19" height="19" viewBox="0 0 19 19" fill="none" xmlns="http://www.w3.org/2000/svg">
<path d="M10.4499 11.98L5.87988 12.95L6.84988 8.37998C6.91988 8.04998 7.07988 7.74998 7.31988 7.50998L13.7199 1.10998C14.3999 0.429976 15.4999 0.429976 16.1799 1.10998L17.7099 2.63998C18.3899 3.31998 18.3899 4.41998 17.7099 5.09998L11.3099 11.5C11.0799 11.74 10.7799 11.91 10.4499 11.98Z" stroke="white" stroke-width="1.2" stroke-miterlimit="10" stroke-linecap="round" stroke-linejoin="round"/>
<path d="M15.6401 7.20997V16.26C15.6401 17.33 14.7701 18.19 13.7101 18.19H2.5301C1.4601 18.19 0.600098 17.32 0.600098 16.26V5.08997C0.600098 4.01997 1.4701 3.15997 2.5301 3.15997H11.5501" stroke="white" stroke-width="1.2" stroke-miterlimit="10" stroke-linecap="round" stroke-linejoin="round"/>
</svg>
