<svg width="13" height="13" viewBox="0 0 13 13" fill="none" xmlns="http://www.w3.org/2000/svg">
<path d="M7.75821 7.86218L5.16994 5.29388M7.75821 7.86218L4.52388 11.0715C4.0977 11.4945 3.58037 11.8283 2.98643 11.93C2.38672 12.0327 1.64249 12.0668 1.28758 11.7146C0.932673 11.3625 0.967097 10.6239 1.07053 10.0289C1.17297 9.43951 1.50946 8.92617 1.93565 8.50323L5.16994 5.29388M7.75821 7.86218C7.75821 7.86218 9.69932 5.93596 8.4052 4.65181C7.11108 3.36765 5.16994 5.29388 5.16994 5.29388M1 6.45764C1 2.28415 2.29412 1 6.5 1C10.7059 1 12 2.28415 12 6.45764C12 10.6311 10.7059 11.9153 6.5 11.9153" stroke="white" stroke-linecap="round" stroke-linejoin="round"/>
</svg>
