<svg width="21" height="21" viewBox="0 0 21 21" fill="none" xmlns="http://www.w3.org/2000/svg">
<path fill-rule="evenodd" clip-rule="evenodd" d="M10.5 0C16.299 0 21 4.70101 21 10.5C21 16.299 16.299 21 10.5 21C4.70101 21 0 16.299 0 10.5C0 4.70101 4.70101 0 10.5 0ZM10.5 1.22325C15.6233 1.22383 19.7761 5.37743 19.7757 10.5007C19.7753 15.624 15.6219 19.7769 10.4986 19.7768C5.37533 19.7766 1.2222 15.6233 1.2222 10.5C1.22227 8.03949 2.19981 5.6798 3.93975 3.94005C5.67969 2.20031 8.03949 1.22304 10.5 1.22325ZM7.17832 5.94562C6.85378 5.94176 6.54124 6.0682 6.31068 6.29664C6.08012 6.52508 5.9508 6.83643 5.95166 7.161C5.95166 7.83847 6.50086 8.38766 7.17832 8.38766C7.85579 8.38766 8.40499 7.83847 8.40499 7.161C8.40585 6.83643 8.27653 6.52508 8.04597 6.29664C7.81541 6.0682 7.50287 5.94176 7.17832 5.94562ZM17.4975 12.3086C16.9383 15.33 14.0222 17.8526 10.4987 17.8526C7.00324 17.8526 4.10419 15.3668 3.51225 12.3795C3.39229 11.634 4.00286 11.4581 4.578 11.5972C6.50201 12.1536 8.49732 12.4242 10.5 12.4005C12.4982 12.4237 14.4889 12.1539 16.4089 11.5999C16.968 11.4581 17.5668 11.6182 17.4975 12.3086ZM15.5993 12.7286C15.5447 12.7496 15.4893 12.7654 15.4334 12.7837C15.4277 12.7864 15.6125 12.726 15.6069 12.7286C13.9467 13.1857 12.2305 13.4075 10.5087 13.3875C8.45381 13.3875 6.61605 13.1591 5.35133 12.705C4.43441 12.432 4.61029 13.5109 5.25472 13.8416C6.90337 14.5922 8.69708 14.9704 10.5084 14.9494C12.663 14.9494 14.5829 14.448 15.8511 13.7996C16.4511 13.4137 16.5698 12.3795 15.5993 12.7286ZM13.8285 5.94562C13.5039 5.94176 13.1914 6.06819 12.9608 6.29662C12.7302 6.52505 12.6008 6.83641 12.6016 7.161C12.5951 7.60357 12.8275 8.01532 13.2097 8.23849C13.592 8.46166 14.0648 8.46166 14.447 8.23849C14.8292 8.01532 15.0616 7.60357 15.0552 7.161C15.056 6.83646 14.9266 6.52514 14.6961 6.29672C14.4655 6.06829 14.153 5.94183 13.8285 5.94562Z" fill="#535457"/>
</svg>
