<svg width="21" height="15" viewBox="0 0 21 15" fill="none" xmlns="http://www.w3.org/2000/svg">
<path d="M14.6555 3.75H15.525C18.3831 3.75 20.7 6.2684 20.7 9.375C20.7 12.4816 18.3831 15 15.525 15H4.025C1.80205 15 0 13.0412 0 10.625C0 8.42095 1.49943 6.59757 3.45 6.29431C3.45 2.79822 6.02436 0 9.2 0H9.775C12.0282 0 13.9451 1.56526 14.6555 3.75ZM14.9184 5C14.9393 5.20521 14.95 5.41374 14.95 5.625C14.95 5.97018 14.6926 6.25 14.375 6.25C14.0574 6.25 13.8 5.97018 13.8 5.625C13.8 3.20875 11.9979 1.25 9.775 1.25H9.2C6.65949 1.25 4.6 3.48858 4.6 6.25V6.875C4.6 7.22018 4.34256 7.5 4.025 7.5C2.43718 7.5 1.15 8.89911 1.15 10.625C1.15 12.3509 2.43718 13.75 4.025 13.75H15.525C17.7479 13.75 19.55 11.7912 19.55 9.375C19.55 6.95875 17.7479 5 15.525 5H14.9184Z" fill="#555453"/>
</svg>
