<svg width="32" height="33" viewBox="0 0 32 33" fill="none" xmlns="http://www.w3.org/2000/svg">
<path fill-rule="evenodd" clip-rule="evenodd" d="M0 16.6144C0 15.9435 0.543886 15.3996 1.2148 15.3996H22.2714C22.9423 15.3996 23.4862 15.9435 23.4862 16.6144C23.4862 17.2853 22.9423 17.8292 22.2714 17.8292H1.2148C0.543886 17.8292 0 17.2853 0 16.6144Z" fill="#026EE2"/>
<path fill-rule="evenodd" clip-rule="evenodd" d="M14.9331 7.65664C15.4075 7.18223 16.1767 7.18223 16.6511 7.65664L24.6352 15.6408C25.1729 16.1785 25.1729 17.0502 24.6352 17.5878L16.6511 25.572C16.1767 26.0464 15.4075 26.0464 14.9331 25.572C14.4587 25.0976 14.4587 24.3284 14.9331 23.854L22.1728 16.6143L14.9331 9.37463C14.4587 8.90022 14.4587 8.13105 14.9331 7.65664Z" fill="#026EE2"/>
<path fill-rule="evenodd" clip-rule="evenodd" d="M21.5962 1.49697C21.5962 0.826056 22.1401 0.28217 22.811 0.28217H30.2078C30.9682 0.28217 31.5846 0.898577 31.5846 1.65895V31.5701C31.5846 32.3305 30.9682 32.9469 30.2078 32.9469H21.7312C21.0602 32.9469 20.5164 32.403 20.5164 31.7321C20.5164 31.0611 21.0602 30.5173 21.7312 30.5173H29.155V2.71178H22.811C22.1401 2.71178 21.5962 2.16789 21.5962 1.49697Z" fill="#026EE2"/>
</svg>
