<svg width="29" height="29" viewBox="0 0 29 29" fill="none" xmlns="http://www.w3.org/2000/svg">
<path d="M13.3712 2.80295C13.717 1.75989 13.8899 1.23837 14.1456 1.09383C14.3668 0.968724 14.6332 0.968724 14.8545 1.09383C15.1101 1.23837 15.2829 1.75989 15.6287 2.80295L17.9146 9.69861C18.013 9.99548 18.0622 10.1439 18.1509 10.2544C18.2292 10.3521 18.3291 10.4282 18.4419 10.4761C18.5694 10.5304 18.7193 10.5336 19.0189 10.54L25.9794 10.6887C27.0323 10.7112 27.5587 10.7225 27.7689 10.9328C27.9507 11.1148 28.033 11.3805 27.9879 11.6398C27.9359 11.9394 27.5163 12.2729 26.6771 12.9402L21.1292 17.3505C20.8904 17.5405 20.771 17.6355 20.6982 17.7579C20.6338 17.8663 20.5957 17.9895 20.587 18.1166C20.5773 18.2607 20.6206 18.4111 20.7074 18.712L22.7235 25.6996C23.0284 26.7566 23.1809 27.2851 23.0551 27.5595C22.9462 27.7971 22.7307 27.9613 22.4815 27.9965C22.1937 28.0371 21.7615 27.7218 20.8971 27.091L15.1825 22.9213C14.9365 22.7417 14.8136 22.652 14.6799 22.6171C14.5618 22.5864 14.4382 22.5864 14.3202 22.6171C14.1865 22.652 14.0634 22.7417 13.8174 22.9213L8.10293 27.091C7.23854 27.7218 6.80634 28.0371 6.5185 27.9965C6.26939 27.9613 6.05385 27.7971 5.94497 27.5595C5.81917 27.2851 5.97165 26.7566 6.27659 25.6996L8.29261 18.712C8.37939 18.4111 8.42279 18.2607 8.41302 18.1166C8.40438 17.9895 8.36623 17.8663 8.30187 17.7579C8.22902 17.6355 8.1096 17.5405 7.87076 17.3505L2.32298 12.9402C1.4838 12.2729 1.06421 11.9394 1.01213 11.6398C0.967033 11.3805 1.04937 11.1148 1.2312 10.9328C1.44128 10.7225 1.96771 10.7113 3.02057 10.6887L9.98108 10.54C10.2807 10.5336 10.4306 10.5304 10.5582 10.4761C10.671 10.4282 10.7709 10.3521 10.8492 10.2544C10.9379 10.1439 10.9871 9.99548 11.0855 9.69861L13.3712 2.80295Z" stroke="#555453" stroke-width="2" stroke-linecap="round" stroke-linejoin="round"/>
</svg>
