<svg width="12" height="12" viewBox="0 0 12 12" fill="none" xmlns="http://www.w3.org/2000/svg">
<g clip-path="url(#clip0_296_1037)">
<path d="M7.12062 0.579926C7.25986 0.670818 7.38244 0.77311 7.50001 0.890473C7.51463 0.904824 7.52926 0.919175 7.54432 0.93396C7.9348 1.34643 8.02545 1.89769 8.02296 2.44321C8.02288 2.47285 8.02288 2.47285 8.02281 2.50309C8.02044 3.08116 7.94061 3.63411 7.74362 4.18023C7.73821 4.19527 7.7328 4.2103 7.72723 4.22579C7.71402 4.26247 7.70077 4.29913 7.68751 4.33579C7.73287 4.33599 7.73287 4.33599 7.77914 4.3362C8.06564 4.33755 8.35214 4.33926 8.63863 4.34131C8.78588 4.34235 8.93313 4.34327 9.08039 4.3439C9.22278 4.34452 9.36517 4.34547 9.50757 4.34664C9.5616 4.34703 9.61563 4.3473 9.66966 4.34745C10.3568 4.34951 10.9379 4.46666 11.4486 4.95331C11.8667 5.39208 12.016 5.9085 12.0084 6.49991C11.9984 6.80879 11.9397 7.11241 11.8856 7.41599C11.8692 7.50844 11.8533 7.601 11.8374 7.69353C11.8106 7.84847 11.7835 8.00334 11.7561 8.15816C11.7246 8.33611 11.6937 8.51416 11.6631 8.69226C11.6333 8.86533 11.6032 9.03834 11.573 9.21132C11.5602 9.28421 11.5476 9.35713 11.535 9.43005C11.5201 9.516 11.505 9.60189 11.4897 9.68776C11.4815 9.73358 11.4737 9.77946 11.4658 9.82533C11.3614 10.4037 11.1133 10.9284 10.6217 11.2726C10.3795 11.4265 10.1487 11.537 9.8672 11.6014C9.85012 11.6055 9.83304 11.6097 9.81544 11.6139C9.73335 11.6276 9.65271 11.6285 9.56974 11.6286C9.55192 11.6287 9.53409 11.6289 9.51572 11.629C9.45661 11.6293 9.3975 11.6295 9.33839 11.6296C9.31786 11.6297 9.29733 11.6297 9.27617 11.6298C9.16667 11.6302 9.05717 11.6304 8.94766 11.6305C8.8589 11.6306 8.77014 11.6309 8.68138 11.6314C7.27145 11.6399 5.87979 11.4835 4.53517 11.0404C4.50781 11.0314 4.48045 11.0224 4.45226 11.0132C4.28552 10.9569 4.12363 10.8928 3.96173 10.824C3.94128 10.8153 3.92083 10.8067 3.89976 10.7978C3.84982 10.7766 3.79991 10.7554 3.75001 10.7342C3.74303 9.94061 3.73767 9.14701 3.73445 8.35337C3.73407 8.25964 3.73368 8.16591 3.73327 8.07218C3.73319 8.05352 3.73311 8.03486 3.73303 8.01564C3.73171 7.71364 3.7293 7.41166 3.7265 7.10967C3.72365 6.79972 3.72196 6.48978 3.72134 6.17981C3.72092 5.98859 3.71961 5.79742 3.71713 5.60621C3.71533 5.4595 3.71514 5.31283 3.71555 5.16611C3.71546 5.10599 3.71486 5.04587 3.71369 4.98576C3.7055 4.54255 3.7055 4.54255 3.77971 4.43228C3.85965 4.35244 3.95176 4.31085 4.0547 4.26547C4.09419 4.23692 4.13298 4.20732 4.17042 4.17612C4.189 4.16092 4.20758 4.14572 4.22672 4.13007C4.2473 4.11288 4.26787 4.09568 4.28907 4.07797C4.30167 4.06749 4.31428 4.057 4.32726 4.04619C4.92331 3.54862 5.49547 2.90979 5.60157 2.10922C5.61489 1.94411 5.61962 1.77827 5.62569 1.61276C5.65773 0.767619 5.65773 0.767619 5.91285 0.503113C6.247 0.21681 6.78635 0.384904 7.12062 0.579926Z" fill="#555453"/>
<path d="M0.89616 3.98022C0.925199 3.97992 0.954238 3.97962 0.984157 3.97931C1.01572 3.97912 1.04729 3.97894 1.07885 3.97878C1.09491 3.97869 1.11098 3.97859 1.12752 3.97849C1.21267 3.97801 1.29782 3.97767 1.38297 3.97745C1.47009 3.97719 1.5572 3.97639 1.64432 3.97545C1.712 3.97483 1.77969 3.97464 1.84738 3.97456C1.89485 3.97439 1.94232 3.97378 1.98978 3.97314C2.28643 3.97383 2.54956 4.02831 2.76562 4.24218C2.94967 4.44067 3.01431 4.65824 3.0119 4.92467C3.01205 4.94988 3.01219 4.97509 3.01234 5.00106C3.01272 5.08497 3.01242 5.16887 3.01213 5.25278C3.01225 5.31317 3.01242 5.37355 3.01262 5.43393C3.01304 5.58059 3.01295 5.72724 3.01268 5.87389C3.01247 5.99314 3.01244 6.11238 3.01254 6.23163C3.01256 6.24864 3.01257 6.26565 3.01259 6.28317C3.01261 6.31773 3.01265 6.35229 3.01268 6.38684C3.01294 6.71047 3.01264 7.03408 3.01213 7.35771C3.01171 7.63505 3.01179 7.91239 3.01222 8.18974C3.01272 8.51225 3.01292 8.83475 3.01263 9.15726C3.0126 9.19169 3.01257 9.22611 3.01254 9.26054C3.01252 9.28594 3.01252 9.28594 3.0125 9.31186C3.01242 9.43089 3.01255 9.54991 3.01277 9.66894C3.01307 9.82931 3.01286 9.98967 3.01232 10.15C3.01219 10.2088 3.01223 10.2676 3.01243 10.3264C3.01269 10.4068 3.01237 10.4871 3.0119 10.5675C3.01211 10.5906 3.01232 10.6138 3.01253 10.6376C3.0096 10.8992 2.90724 11.1029 2.72754 11.2895C2.56121 11.4435 2.36775 11.5101 2.14402 11.512C2.12887 11.5121 2.11373 11.5123 2.09813 11.5124C2.04813 11.5129 1.99814 11.5132 1.94815 11.5134C1.92238 11.5135 1.92238 11.5135 1.8961 11.5137C1.80508 11.5142 1.71406 11.5145 1.62304 11.5147C1.52963 11.515 1.43624 11.5158 1.34284 11.5167C1.27051 11.5173 1.19818 11.5175 1.12585 11.5176C1.09145 11.5177 1.05706 11.518 1.02267 11.5184C0.726921 11.522 0.481582 11.4785 0.257809 11.2734C0.122485 11.14 0.00861817 10.972 -0.0030494 10.7773C-0.00310403 10.7587 -0.00315862 10.7402 -0.0032149 10.7211C-0.00333383 10.6996 -0.00345285 10.6781 -0.00357538 10.656C-0.00358705 10.6325 -0.00359868 10.609 -0.0036107 10.5847C-0.00371341 10.5597 -0.0038161 10.5346 -0.00392193 10.5088C-0.00423578 10.4246 -0.00438056 10.3403 -0.00452408 10.2561C-0.00470926 10.1958 -0.00490306 10.1355 -0.00510487 10.0752C-0.00567922 9.8941 -0.00602242 9.71296 -0.00632501 9.53182C-0.00641204 9.48063 -0.00650517 9.42944 -0.00660047 9.37825C-0.00719205 9.06014 -0.00770872 8.74202 -0.00800031 8.42391C-0.00806898 8.35025 -0.00813843 8.27658 -0.00820908 8.20292C-0.00822657 8.18462 -0.00824408 8.16631 -0.0082621 8.14745C-0.00855844 7.85111 -0.00933678 7.55479 -0.0103138 7.25846C-0.0113094 6.95398 -0.0118605 6.64951 -0.0119829 6.34504C-0.0120627 6.17419 -0.0123364 6.00334 -0.0131103 5.83249C-0.0138375 5.67166 -0.013963 5.51084 -0.0136872 5.35002C-0.0136821 5.2911 -0.0138763 5.23218 -0.0142885 5.17327C-0.0187616 4.49685 -0.0187616 4.49685 0.245724 4.21975C0.434741 4.06625 0.65311 3.98242 0.89616 3.98022Z" fill="#555453"/>
</g>
<defs>
<clipPath id="clip0_296_1037">
<rect width="12" height="12" fill="white"/>
</clipPath>
</defs>
</svg>
