<svg width="18" height="18" viewBox="0 0 18 18" fill="none" xmlns="http://www.w3.org/2000/svg">
<path d="M11.4128 4.36578e-07C10.2732 -1.62301e-05 9.3545 -3.28571e-05 8.63209 0.0971005C7.882 0.19795 7.2504 0.413692 6.74881 0.915292C6.31136 1.35273 6.09033 1.8903 5.9743 2.52196C5.86156 3.13576 5.84 3.88692 5.83497 4.78819C5.83305 5.13336 6.11131 5.41473 6.45649 5.41666C6.80166 5.41858 7.08304 5.14032 7.08495 4.79515C7.09003 3.8839 7.1137 3.238 7.20374 2.74779C7.2905 2.27545 7.42984 2.00205 7.63267 1.79918C7.86334 1.56854 8.18717 1.41817 8.79859 1.33596C9.42809 1.25133 10.2623 1.25 11.4585 1.25H12.2918C13.488 1.25 14.3223 1.25133 14.9518 1.33596C15.5633 1.41817 15.887 1.56854 16.1177 1.79918C16.3483 2.02981 16.4987 2.35363 16.5809 2.9651C16.6655 3.59456 16.6668 4.42883 16.6668 5.625V12.2917C16.6668 13.4878 16.6655 14.3221 16.5809 14.9516C16.4987 15.5631 16.3483 15.8868 16.1177 16.1175C15.887 16.3482 15.5633 16.4985 14.9518 16.5808C14.3223 16.6653 13.488 16.6667 12.2918 16.6667H11.4585C10.2623 16.6667 9.42809 16.6653 8.79859 16.5808C8.18717 16.4985 7.86334 16.3482 7.63267 16.1175C7.42984 15.9146 7.2905 15.6412 7.20374 15.1689C7.1137 14.6787 7.09003 14.0328 7.08495 13.1215C7.08304 12.7763 6.80166 12.4981 6.45649 12.5C6.11131 12.5019 5.83305 12.7833 5.83497 13.1285C5.84 14.0298 5.86156 14.7809 5.9743 15.3947C6.09033 16.0263 6.31136 16.5639 6.74881 17.0014C7.2504 17.503 7.882 17.7188 8.63209 17.8196C9.3545 17.9167 10.2732 17.9167 11.4128 17.9167H12.3376C13.4773 17.9167 14.3958 17.9167 15.1183 17.8196C15.8684 17.7188 16.4999 17.503 17.0016 17.0014C17.5032 16.4998 17.7189 15.8682 17.8198 15.1182C17.9169 14.3957 17.9168 13.4771 17.9168 12.3374V5.57928C17.9168 4.43962 17.9169 3.52102 17.8198 2.79854C17.7189 2.04845 17.5032 1.41689 17.0016 0.915292C16.4999 0.413692 15.8684 0.19795 15.1183 0.0971005C14.3958 -3.28571e-05 13.4773 -1.62301e-05 12.3376 4.36578e-07H11.4128Z" fill="#555454"/>
<path d="M11.4583 8.33351C11.8035 8.33351 12.0833 8.61334 12.0833 8.95851C12.0833 9.30367 11.8035 9.58351 11.4583 9.58351H2.31453L3.94841 10.984C4.21049 11.2086 4.24084 11.6032 4.0162 11.8653C3.79157 12.1273 3.397 12.1577 3.13493 11.933L0.218258 9.43301C0.079725 9.31434 0 9.14092 0 8.95851C0 8.77609 0.079725 8.60267 0.218258 8.48401L3.13493 5.98397C3.397 5.75933 3.79157 5.78968 4.0162 6.05177C4.24084 6.31384 4.21049 6.70841 3.94841 6.93304L2.31453 8.33351H11.4583Z" fill="#555454"/>
</svg>
