<svg width="97" height="96" viewBox="0 0 97 96" fill="none" xmlns="http://www.w3.org/2000/svg">
<path d="M48 0C21.4903 0 0 21.4903 0 48C0 62.858 6.75193 76.1384 17.3537 84.9429L17.5496 84.8509V82.272C17.5496 78.0588 20.9772 74.6312 25.1904 74.6312H70.8096C75.0228 74.6312 78.4504 78.0588 78.4504 82.272V84.8509L78.6463 84.9429C89.248 76.1384 96 62.858 96 48C96 21.4903 74.5097 0 48 0Z" fill="#5F80F8"/>
<path d="M32.7198 70.6333H63.283V74.6314H32.7198V70.6333Z" fill="black"/>
<path d="M32.7198 70.6333H40.5565V74.6314H32.7198V70.6333Z" fill="#EAF6FF"/>
<path d="M70.8114 74.4354H25.1922C20.8642 74.4354 17.3555 77.9441 17.3555 82.2722V84.9431C25.6693 91.8475 36.3503 96.0002 48.0018 96.0002C59.6533 96.0002 70.3343 91.8475 78.6481 84.9431V82.2722C78.6481 77.9439 75.1394 74.4354 70.8114 74.4354Z" fill="#D8ECFE"/>
<path d="M25.501 82.2722C25.501 77.9441 29.0097 74.4354 33.3377 74.4354H25.1922C20.8642 74.4354 17.3555 77.9441 17.3555 82.2722V84.9431C19.8671 87.0289 22.5959 88.8615 25.501 90.4065V82.2722Z" fill="#C4E2FF"/>
<path d="M48.7436 89.6205L54.3504 83.1217C54.898 82.4869 54.447 81.5022 53.6087 81.5022H42.3953C41.557 81.5022 41.106 82.4869 41.6535 83.1217L47.2603 89.6205C47.651 90.0734 48.3528 90.0734 48.7436 89.6205Z" fill="black"/>
<path d="M45.6947 83.1217C45.1472 82.4869 45.598 81.5022 46.4365 81.5022H42.3953C41.557 81.5022 41.106 82.4869 41.6535 83.1217L47.2601 89.6205C47.651 90.0734 48.3528 90.0734 48.7436 89.6205L50.0226 88.1379L45.6947 83.1217Z" fill="#EAF6FF"/>
<path d="M17.0277 61.6614V53.1578C17.0277 51.5941 17.1833 50.0664 17.4775 48.5878H16.0462C13.1528 48.5878 10.8075 50.9331 10.8075 53.8264V58.2793C10.8075 61.1726 13.1528 63.5179 16.0462 63.5179H17.2223C17.0955 62.9188 17.0277 62.2979 17.0277 61.6614Z" fill="black"/>
<path d="M79.9589 48.5881H78.5275C78.8218 50.0665 78.9774 51.5945 78.9774 53.1581V61.6618C78.9774 62.2983 78.9096 62.9192 78.783 63.5185H79.9591C82.8524 63.5185 85.1978 61.1731 85.1978 58.2798V53.827C85.1976 50.9335 82.8522 48.5881 79.9589 48.5881Z" fill="black"/>
<path d="M70.0047 70.8292H25.9999C20.9368 70.8292 16.8323 66.7247 16.8323 61.6616V53.1579C16.8323 40.1384 27.3866 29.5839 40.4061 29.5839H55.5982C68.6178 29.5839 79.1723 40.1384 79.1723 53.1579V61.6616C79.1723 66.7247 75.0678 70.8292 70.0047 70.8292Z" fill="#D8ECFE"/>
<path d="M27.0392 61.6614V58.6139C25.5622 56.5313 24.6904 53.9908 24.6904 51.2489C24.6904 46.6382 27.148 42.5909 30.8218 40.3472C35.0233 33.8698 42.3173 29.5839 50.6133 29.5839H40.4063C27.3868 29.5839 16.8323 40.1384 16.8323 53.1579V61.6616C16.8323 66.7247 20.9368 70.8292 25.9999 70.8292H36.2068C31.1437 70.8292 27.0392 66.7247 27.0392 61.6614Z" fill="#C4E2FF"/>
<path d="M37.4552 64.0138C30.4169 64.0138 24.6906 58.2875 24.6906 51.2491C24.6906 44.2107 30.4169 38.4844 37.4552 38.4844H58.5501C65.5885 38.4844 71.3148 44.2107 71.3148 51.2491C71.3148 58.2875 65.5885 64.0138 58.5501 64.0138H37.4552Z" fill="#116D9A"/>
<path d="M32.917 51.2491C32.917 44.2107 38.6433 38.4844 45.6816 38.4844H37.4552C30.4169 38.4844 24.6906 44.2107 24.6906 51.2491C24.6906 58.2875 30.4169 64.0138 37.4552 64.0138H45.6816C38.6433 64.0138 32.917 58.2875 32.917 51.2491Z" fill="#005E89"/>
<path d="M54.813 57.4044H41.1924C40.4691 57.4044 39.8827 56.818 39.8827 56.0947V53.9992C39.8827 53.2758 40.4691 52.6895 41.1924 52.6895H54.813C55.5364 52.6895 56.1227 53.2758 56.1227 53.9992V56.0947C56.1227 56.818 55.5364 57.4044 54.813 57.4044Z" fill="#F2C94C"/>
<path d="M37.5897 51.1181H34.1847C33.4613 51.1181 32.8749 50.5317 32.8749 49.8083V46.4033C32.8749 45.6799 33.4613 45.0936 34.1847 45.0936H37.5897C38.313 45.0936 38.8994 45.6799 38.8994 46.4033V49.8083C38.8994 50.5317 38.313 51.1181 37.5897 51.1181Z" fill="#F2C94C"/>
<path d="M61.8176 51.1181H58.4125C57.6892 51.1181 57.1028 50.5317 57.1028 49.8084V46.4033C57.1028 45.68 57.6892 45.0936 58.4125 45.0936H61.8176C62.5409 45.0936 63.1273 45.68 63.1273 46.4033V49.8084C63.1273 50.5317 62.5409 51.1181 61.8176 51.1181Z" fill="#F2C94C"/>
<path fill-rule="evenodd" clip-rule="evenodd" d="M86 27.9922C91.5228 27.9922 96 23.515 96 17.9922C96 12.4693 91.5228 7.99219 86 7.99219C80.4772 7.99219 76 12.4693 76 17.9922C76 23.515 80.4772 27.9922 86 27.9922Z" fill="#27AE60" stroke="#1A1A1A" stroke-width="1.5"/>
</svg>
