<svg width="16" height="16" viewBox="0 0 16 16" fill="none" xmlns="http://www.w3.org/2000/svg">
<path d="M14.7615 4.81775C14.4249 4.6201 14.0206 4.61538 13.6808 4.80544C12.9494 5.21414 12.3196 5.66336 11.8091 6.14065C11.6569 6.28274 11.5696 6.48832 11.5696 6.70466V14.8336C11.5696 15.0908 11.7787 15.3 12.0359 15.3H14.8337C15.0908 15.3 15.3 15.0908 15.3 14.8336V5.75719C15.3 5.36687 15.0987 5.01572 14.7615 4.81775ZM14.9891 14.8337C14.9891 14.9194 14.9195 14.9891 14.8337 14.9891H12.0359C11.9501 14.9891 11.8804 14.9194 11.8804 14.8337V6.70469C11.8804 6.57429 11.9317 6.45145 12.0213 6.36781C12.5136 5.90765 13.1229 5.4733 13.8323 5.07691C13.951 5.01071 14.0806 4.97763 14.2101 4.97763C14.3457 4.97763 14.4812 5.01376 14.6042 5.08586C14.8452 5.22751 14.9891 5.47846 14.9891 5.75719V14.8337ZM9.47667 7.92694C9.14 7.72929 8.73593 7.72456 8.39605 7.91463C7.66458 8.32333 7.03479 8.77255 6.52431 9.24984C6.37208 9.39193 6.28478 9.59751 6.28478 9.81384V14.8336C6.28478 15.0908 6.49397 15.3 6.75109 15.3H9.54891C9.80603 15.3 10.0152 15.0908 10.0152 14.8336V8.86635C10.0152 8.47602 9.81393 8.1249 9.47667 7.92694ZM9.70435 14.8337C9.70435 14.9194 9.63468 14.9891 9.54891 14.9891H6.75109C6.66532 14.9891 6.59565 14.9194 6.59565 14.8337V9.81387C6.59565 9.68347 6.64695 9.56063 6.73651 9.47699C7.22877 9.01683 7.83807 8.58248 8.54754 8.18609C8.66623 8.1199 8.79586 8.08681 8.92534 8.08681C9.06088 8.08681 9.19645 8.12294 9.3194 8.19504C9.56045 8.3367 9.70435 8.58764 9.70435 8.86638V14.8337ZM4.19188 10.7252C3.85506 10.5276 3.45099 10.5228 3.11127 10.7129C2.37979 11.1216 1.75 11.5708 1.23953 12.0481C1.08729 12.1902 1 12.3958 1 12.6121V14.8336C1 15.0908 1.20918 15.3 1.4663 15.3H4.26413C4.52125 15.3 4.73043 15.0908 4.73043 14.8336V11.6646C4.73043 11.2743 4.52915 10.9232 4.19188 10.7252ZM4.41957 14.8337C4.41957 14.9194 4.3499 14.9891 4.26413 14.9891H1.4663C1.38054 14.9891 1.31087 14.9194 1.31087 14.8337V12.6121C1.31087 12.4817 1.36216 12.3589 1.45172 12.2753C1.94399 11.8151 2.55329 11.3807 3.26276 10.9844C3.38145 10.9182 3.51108 10.8851 3.64056 10.8851C3.7761 10.8851 3.91167 10.9212 4.03462 10.9933C4.27566 11.135 4.41957 11.3859 4.41957 11.6646V14.8337ZM11.7821 4.46934C11.8955 3.40982 11.9078 2.37564 11.8187 1.39554C11.798 1.1663 11.6024 0.996721 11.3704 1.00005C10.2191 1.0377 9.1588 1.23414 8.21907 1.58423C8.05864 1.64405 7.9466 1.78052 7.91927 1.94934C7.89226 2.11724 7.95509 2.28122 8.08776 2.38765L8.60263 2.80163C8.29403 3.25996 6.94781 5.02557 3.99209 5.96638C3.64189 6.07766 3.26683 6.15812 2.9042 6.23585C1.87886 6.45552 0.910563 6.66321 1.00802 7.52993C1.02928 7.72136 1.14328 7.99146 1.56647 8.19063C1.93578 8.36447 2.4687 8.45252 3.08105 8.45252C4.36034 8.45252 5.98588 8.06828 7.18764 7.27914C9.08594 6.0332 10.2759 4.79406 10.6157 4.42046L11.0513 4.7695C11.1802 4.87319 11.3562 4.89732 11.509 4.8337C11.6625 4.76978 11.7646 4.6336 11.7821 4.46934ZM11.473 4.43626C11.4655 4.50777 11.4122 4.53737 11.3895 4.54679C11.3404 4.56712 11.2868 4.55985 11.2456 4.52689L10.6948 4.08542C10.6291 4.03259 10.5333 4.04214 10.4789 4.10637C10.4668 4.1208 9.23699 5.56228 7.01704 7.01928C5.35006 8.11418 2.745 8.40187 1.69887 7.90937C1.4636 7.79869 1.33518 7.65949 1.31712 7.49539C1.25414 6.9367 1.90395 6.76833 2.96936 6.53987C3.33926 6.46062 3.72179 6.37863 4.08641 6.26281C7.60812 5.14179 8.89093 2.93775 8.9439 2.84439C8.98139 2.77804 8.96544 2.69424 8.90594 2.64658L8.28237 2.14544C8.21861 2.09414 8.22197 2.02595 8.22619 1.99909C8.23061 1.97161 8.24942 1.90482 8.32745 1.87581C9.23577 1.53741 10.2629 1.34734 11.3804 1.31075H11.3842C11.4478 1.31075 11.5034 1.36056 11.509 1.42355C11.5963 2.38332 11.5843 3.39707 11.473 4.43626Z" fill="#555454" stroke="#555454"/>
</svg>
