<svg width="23" height="20" viewBox="0 0 23 20" fill="none" xmlns="http://www.w3.org/2000/svg">
<path d="M14.6555 8.75H15.525C18.3831 8.75 20.7 11.2684 20.7 14.375C20.7 17.4816 18.3831 20 15.525 20H4.025C1.80205 20 0 18.0412 0 15.625C0 13.421 1.49943 11.5976 3.45 11.2943C3.45 7.79822 6.02436 5 9.2 5H9.775C12.0282 5 13.9451 6.56526 14.6555 8.75ZM14.9184 10C14.9393 10.2052 14.95 10.4137 14.95 10.625C14.95 10.9702 14.6926 11.25 14.375 11.25C14.0574 11.25 13.8 10.9702 13.8 10.625C13.8 8.20875 11.9979 6.25 9.775 6.25H9.2C6.65949 6.25 4.6 8.48858 4.6 11.25V11.875C4.6 12.2202 4.34256 12.5 4.025 12.5C2.43718 12.5 1.15 13.8991 1.15 15.625C1.15 17.3509 2.43718 18.75 4.025 18.75H15.525C17.7479 18.75 19.55 16.7912 19.55 14.375C19.55 11.9588 17.7479 10 15.525 10H14.9184ZM21.6864 9.36999C21.4749 9.62748 21.1114 9.64985 20.8745 9.41996C20.6376 9.19007 20.6171 8.79498 20.8286 8.53749C21.4827 7.7411 21.85 6.71492 21.85 5.625C21.85 3.20875 20.0479 1.25 17.825 1.25C15.9768 1.25 14.379 2.61566 13.9261 4.53361C13.8472 4.86795 13.5338 5.06943 13.2262 4.98361C12.9186 4.8978 12.7333 4.5572 12.8122 4.22285C13.3949 1.75539 15.4487 0 17.825 0C20.6831 0 23 2.5184 23 5.625C23 7.025 22.5269 8.34669 21.6864 9.36999Z" fill="#555453"/>
</svg>
