<svg width="34" height="34" viewBox="0 0 34 34" fill="none" xmlns="http://www.w3.org/2000/svg">
<path d="M11.375 26C10.6156 26 10 26.6156 10 27.375C10 28.1344 10.6156 28.75 11.375 28.75H22.375C23.1344 28.75 23.75 28.1344 23.75 27.375C23.75 26.6156 23.1344 26 22.375 26H11.375Z" fill="#555453"/>
<path opacity="0.5" d="M0 17.3466C0 13.4563 1.01328e-07 11.5112 0.88264 9.89866C1.76528 8.28616 3.37782 7.28537 6.60285 5.28382L10.0029 3.17368C13.412 1.05789 15.1166 0 17 0C18.8834 0 20.588 1.05789 23.9972 3.17368L27.3972 5.2838C30.6223 7.28537 32.2347 8.28616 33.1174 9.89866C34 11.5112 34 13.4563 34 17.3466V19.9325C34 26.5639 34 29.8797 32.0083 31.9398C30.0167 34 26.811 34 20.4 34H13.6C7.18889 34 3.98336 34 1.99167 31.9398C2.02656e-07 29.8797 0 26.5639 0 19.9325V17.3466Z" fill="#555453"/>
</svg>
