<svg width="36" height="36" viewBox="0 0 36 36" fill="none" xmlns="http://www.w3.org/2000/svg">
<path d="M35 18.3466V20.9325C35 27.5639 35 30.8797 33.0083 32.9398C31.0167 35 27.811 35 21.4 35H14.6C8.18889 35 4.98336 35 2.99167 32.9398C1 30.8797 1 27.5639 1 20.9325V18.3466C1 14.4563 1 12.5112 1.88264 10.8987C2.76528 9.28616 4.37782 8.28537 7.60285 6.28382L11.0029 4.17368C14.412 2.05789 16.1166 1 18 1C19.8834 1 21.588 2.05789 24.9972 4.17368L28.3972 6.2838C31.6223 8.28537 33.2347 9.28616 34.1174 10.8987" stroke="#555453" stroke-width="2" stroke-linecap="round"/>
<path d="M23.1 28.1997H12.9" stroke="#555453" stroke-width="2" stroke-linecap="round"/>
</svg>
