<svg width="34" height="34" viewBox="0 0 34 34" fill="none" xmlns="http://www.w3.org/2000/svg">
<path opacity="0.5" d="M34 17C34 26.3888 26.3888 34 17 34C7.61116 34 0 26.3888 0 17C0 7.61116 7.61116 0 17 0C26.3888 0 34 7.61116 34 17Z" fill="#555453"/>
<path d="M26.0403 31.4496C23.716 33.0462 20.033 34 17 34C13.967 34 10.284 33.0462 7.95972 31.4496C6.93318 30.7444 7.36285 26.8701 7.95972 25.777C9.19702 23.5109 11.7465 22.0996 17 22.0996C22.2535 22.0996 24.803 23.5111 26.0403 25.777C26.6371 26.8701 27.0667 30.7444 26.0403 31.4496Z" fill="#555453"/>
<path d="M17 16.9998C19.8167 16.9998 22.1 14.7165 22.1 11.8998C22.1 9.08316 19.8167 6.7998 17 6.7998C14.1834 6.7998 11.9001 9.08316 11.9001 11.8998C11.9001 14.7165 14.1834 16.9998 17 16.9998Z" fill="#555453"/>
</svg>
