<svg width="36" height="36" viewBox="0 0 36 36" fill="none" xmlns="http://www.w3.org/2000/svg">
<path d="M18 17.9998C20.8167 17.9998 23.1 15.7165 23.1 12.8998C23.1 10.0832 20.8167 7.7998 18 7.7998C15.1833 7.7998 12.9 10.0832 12.9 12.8998C12.9 15.7165 15.1833 17.9998 18 17.9998Z" stroke="#555453" stroke-width="2"/>
<path d="M28.1475 31.5996C27.877 26.6841 26.372 23.0996 17.9998 23.0996C9.62786 23.0996 8.12285 26.6841 7.85229 31.5996" stroke="#555453" stroke-width="2" stroke-linecap="round"/>
<path d="M9.5 3.27429C12.0005 1.82785 14.9036 1 18 1C27.3888 1 35 8.61116 35 18C35 27.3888 27.3888 35 18 35C8.61116 35 1 27.3888 1 18C1 14.9036 1.82785 12.0005 3.27429 9.5" stroke="#555453" stroke-width="2" stroke-linecap="round"/>
</svg>
