<svg width="17" height="16" viewBox="0 0 17 16" fill="none" xmlns="http://www.w3.org/2000/svg">
<path d="M16.4651 12.6662L15.4417 9.59571C15.9898 8.63202 16.2787 7.53877 16.2787 6.42525C16.2787 2.88344 13.3972 0.00195312 9.85544 0.00195312C7.65826 0.00195312 5.63704 1.12773 4.46541 2.93622C5.28888 2.59207 6.19206 2.40119 7.13896 2.40119C10.9751 2.40173 14.0957 5.52234 14.0957 9.35792C14.0957 10.4232 13.8544 11.4327 13.4244 12.3362L16.1604 13.0562C16.183 13.0621 16.2057 13.065 16.2284 13.065C16.23 13.065 16.2321 13.0647 16.2337 13.065C16.3811 13.065 16.5003 12.9456 16.5003 12.7984C16.5 12.7502 16.4875 12.7051 16.4651 12.6662Z" fill="#555453"/>
<path d="M7.13924 2.93506C3.59743 2.93506 0.715942 5.81655 0.715942 9.35809C0.715942 10.4713 1.00492 11.5646 1.55301 12.5286L0.513606 15.6465C0.482682 15.7395 0.505075 15.8416 0.571987 15.9131C0.623171 15.9677 0.693815 15.9976 0.766592 15.9976C0.789252 15.9976 0.811911 15.9947 0.834571 15.9888L4.24362 15.0917C5.13668 15.5433 6.13556 15.7814 7.13924 15.7814C10.6811 15.7814 13.5625 12.8999 13.5625 9.35809C13.5625 5.81628 10.6811 2.93506 7.13924 2.93506ZM11.4955 7.14412C11.4549 7.16625 11.411 7.17692 11.3678 7.17692C11.2734 7.17692 11.1822 7.1268 11.1337 7.03856C10.3886 5.67979 8.9704 4.72489 7.43275 4.54628C7.28639 4.52949 7.18189 4.397 7.19869 4.25091C7.21548 4.10482 7.34744 3.99979 7.49406 4.01685C9.20045 4.21492 10.7741 5.27458 11.601 6.78211C11.6719 6.9114 11.6245 7.07348 11.4955 7.14412Z" fill="#555453"/>
</svg>
