<svg width="30" height="30" viewBox="0 0 30 30" fill="none" xmlns="http://www.w3.org/2000/svg">
<path fill-rule="evenodd" clip-rule="evenodd" d="M5.0628 24.9376C5.94668 25.8215 6.83057 25.8215 8.15639 25.3795L21.2181 18.6508C21.971 18.2629 22.1284 17.2545 21.5296 16.6556L13.3448 8.47079C12.7459 7.87197 11.7375 8.02938 11.3496 8.78223L4.62085 21.844C4.17892 23.1698 4.17892 24.0536 5.0628 24.9376Z" stroke="#555453" stroke-width="2" stroke-linecap="round"/>
<path d="M22.5 7.5L24.2094 6.64529C24.5984 6.45082 24.6825 5.93247 24.375 5.625C24.0675 5.31753 24.1516 4.79917 24.5406 4.60471L26.25 3.75" stroke="#555453" stroke-width="2" stroke-linecap="round"/>
<path d="M20 10H20.1562" stroke="#555453" stroke-width="2" stroke-linecap="round"/>
<path d="M24.2188 14.375H24.375" stroke="#555453" stroke-width="2" stroke-linecap="round"/>
<path d="M15 5L13.75 3.125" stroke="#555453" stroke-width="2" stroke-linecap="round"/>
<path d="M19.375 5.625L20 2.5" stroke="#555453" stroke-width="2" stroke-linecap="round"/>
<path d="M27.5 11.25L24.375 10.625" stroke="#555453" stroke-width="2" stroke-linecap="round"/>
<path d="M15 10.625V21.875" stroke="#555453" stroke-width="2" stroke-linecap="round"/>
<path d="M10 11.875V24.375" stroke="#555453" stroke-width="2" stroke-linecap="round"/>
</svg>
