<svg width="22" height="19" viewBox="0 0 22 19" fill="none" xmlns="http://www.w3.org/2000/svg">
<path d="M8.23163 5.90622C6.26389 6.37926 5.28001 6.61579 5.04594 7.41558C4.81186 8.21533 5.4826 9.04875 6.82408 10.7154L7.17113 11.1467C7.55234 11.6202 7.74294 11.857 7.82869 12.1501C7.91444 12.443 7.88562 12.759 7.82799 13.3909L7.77552 13.9662C7.5727 16.19 7.4713 17.3019 8.08412 17.7962C8.69694 18.2905 9.61809 17.8398 11.4605 16.9384L11.9372 16.7053C12.4607 16.4492 12.7225 16.3211 13 16.3211C13.2775 16.3211 13.5393 16.4492 14.0628 16.7053L14.5395 16.9384C16.3819 17.8398 17.3031 18.2905 17.9159 17.7962C18.5287 17.3019 18.4273 16.19 18.2245 13.9662M19.1759 10.7154C20.5174 9.04875 21.1881 8.21533 20.9541 7.41558C20.72 6.61579 19.7361 6.37926 17.7684 5.90622L17.2593 5.78384C16.7001 5.64941 16.4205 5.5822 16.196 5.40114C15.9716 5.22007 15.8276 4.94564 15.5396 4.3968L15.2775 3.89712C14.2641 1.96571 13.7575 1 13 1C12.2425 1 11.7359 1.96571 10.7225 3.89712" stroke="#555453" stroke-width="2" stroke-linecap="round"/>
<path d="M1.08887 13.75C2.20445 12.8161 3.68639 12.4719 5.08886 12.8211" stroke="#555453" stroke-width="2" stroke-linecap="round"/>
<path d="M1.08887 7.90625C2.08887 7.375 2.37862 7.43928 3.08887 7.375" stroke="#555453" stroke-width="2" stroke-linecap="round"/>
<path d="M1 2.70915L1.20816 2.57962C3.41383 1.20719 5.75032 0.837239 7.95304 1.51165L8.16092 1.5753" stroke="#555453" stroke-width="2" stroke-linecap="round"/>
</svg>
