<svg width="19" height="20" viewBox="0 0 19 20" fill="none" xmlns="http://www.w3.org/2000/svg">
<path fill-rule="evenodd" clip-rule="evenodd" d="M18.1363 10.9091C18.1678 10.817 18.1719 10.7185 18.1469 10.6245C17.5531 8.39887 6.52871 2.07223 3.06447 1.00853C2.162 0.731325 1.50808 0.842949 1.12416 1.33932C0.0113699 2.776 2.30946 7.24342 3.65064 9.57941L10.5986 9.82343C11.0012 9.83754 11.3162 10.1763 11.3021 10.58C11.288 10.9838 10.9503 11.2997 10.5477 11.2856L3.53311 11.0385C2.02342 13.305 -0.48451 17.4917 0.509967 18.9787C0.547234 19.0345 0.588054 19.087 0.632478 19.1348C0.999804 19.5298 1.60152 19.6337 2.42188 19.4437C5.94953 18.627 17.3877 13.0905 18.1363 10.9091Z" fill="#757474"/>
</svg>
