<svg width="18" height="18" viewBox="0 0 18 18" fill="none" xmlns="http://www.w3.org/2000/svg">
<path d="M9.00002 11.4001C10.4059 11.4001 11.5456 10.3256 11.5456 9.0001C11.5456 7.67461 10.4059 6.6001 9.00002 6.6001C7.59415 6.6001 6.45447 7.67461 6.45447 9.0001C6.45447 10.3256 7.59415 11.4001 9.00002 11.4001Z" stroke="#555454" stroke-width="2"/>
<path opacity="0.5" d="M10.498 1.12179C10.1861 1 9.79074 1 9.00001 1C8.20927 1 7.81395 1 7.50203 1.12179C7.08623 1.28418 6.75586 1.59566 6.58362 1.9877C6.505 2.16667 6.47423 2.3748 6.46218 2.67839C6.44449 3.12454 6.20182 3.53751 5.79171 3.76074C5.38162 3.98397 4.88096 3.97563 4.4623 3.76701C4.17742 3.62504 3.97085 3.5461 3.76715 3.52082C3.32091 3.46542 2.86962 3.57943 2.51255 3.83776C2.24474 4.0315 2.04706 4.35432 1.6517 4.99994C1.25635 5.64558 1.05867 5.96838 1.0146 6.28393C0.95586 6.70464 1.07678 7.13013 1.35078 7.4668C1.47583 7.62048 1.65159 7.7496 1.92438 7.9112C2.3254 8.1488 2.58343 8.55352 2.5834 9C2.58338 9.44648 2.32536 9.85112 1.92437 10.0886C1.65155 10.2503 1.47576 10.3795 1.35069 10.5332C1.0767 10.8698 0.955775 11.2953 1.01453 11.716C1.05858 12.0315 1.25626 12.3544 1.65162 13C2.04699 13.6456 2.24466 13.9685 2.51246 14.1622C2.86954 14.4205 3.32083 14.5345 3.76707 14.4791C3.97075 14.4538 4.17731 14.3749 4.46217 14.233C4.88085 14.0243 5.38156 14.016 5.79168 14.2392C6.2018 14.4625 6.44449 14.8754 6.46218 15.3217C6.47423 15.6252 6.505 15.8334 6.58362 16.0123C6.75586 16.4043 7.08623 16.7158 7.50203 16.8782C7.81395 17 8.20927 17 9.00001 17C9.79074 17 10.1861 17 10.498 16.8782C10.9138 16.7158 11.2442 16.4043 11.4163 16.0123C11.495 15.8334 11.5258 15.6252 11.5378 15.3216C11.5555 14.8754 11.7982 14.4625 12.2082 14.2392C12.6183 14.0159 13.119 14.0243 13.5378 14.233C13.8226 14.3749 14.0292 14.4538 14.2328 14.479C14.679 14.5345 15.1304 14.4205 15.4874 14.1622C15.7552 13.9684 15.9529 13.6456 16.3483 12.9999C16.7437 12.3543 16.9414 12.0315 16.9854 11.716C17.0441 11.2953 16.9232 10.8698 16.6492 10.5331C16.5241 10.3794 16.3483 10.2502 16.0755 10.0886C15.6746 9.85112 15.4166 9.4464 15.4166 8.99992C15.4166 8.55344 15.6746 8.14888 16.0755 7.91136C16.3484 7.74968 16.5242 7.62056 16.6493 7.4668C16.9233 7.13018 17.0442 6.7047 16.9855 6.28398C16.9414 5.96844 16.7437 5.64562 16.3483 5C15.953 4.35438 15.7553 4.03156 15.4875 3.83782C15.1305 3.57949 14.6791 3.46548 14.2329 3.52087C14.0293 3.54615 13.8227 3.62509 13.5378 3.76704C13.1191 3.97567 12.6184 3.98402 12.2083 3.76077C11.7982 3.53753 11.5555 3.12453 11.5378 2.67835C11.5258 2.37478 11.495 2.16666 11.4163 1.9877C11.2442 1.59566 10.9138 1.28418 10.498 1.12179Z" stroke="#555454" stroke-width="2"/>
</svg>
