<svg width="2" height="10" viewBox="0 0 2 10" fill="none" xmlns="http://www.w3.org/2000/svg">
<path d="M1 7.44482C1.55228 7.44482 2 8.00033 2 8.68563C2 9.37093 1.55228 9.92644 1 9.92644C0.447715 9.92644 0 9.37093 0 8.68563C0 8.00033 0.447715 7.44482 1 7.44482Z" fill="#555453"/>
<path d="M1 3.72266C1.55228 3.72266 2 4.27818 2 4.96346C2 5.64874 1.55228 6.20427 1 6.20427C0.447715 6.20427 0 5.64874 0 4.96346C0 4.27818 0.447715 3.72266 1 3.72266Z" fill="#555453"/>
<path d="M2 1.24081C2 0.555528 1.55228 -2.99545e-08 1 0C0.447715 2.99545e-08 0 0.555529 0 1.24081C0 1.92609 0.447715 2.48161 1 2.48161C1.55228 2.48161 2 1.92609 2 1.24081Z" fill="#555453"/>
</svg>
