<svg width="20" height="20" viewBox="0 0 20 20" fill="none" xmlns="http://www.w3.org/2000/svg">
<path d="M10 0C4.48597 0 0 4.48597 0 10C0 15.514 4.48597 20 10 20C15.514 20 20 15.514 20 10C20 4.48597 15.514 0 10 0ZM10 18.4466C5.34252 18.4466 1.5534 14.6574 1.5534 10C1.5534 5.34252 5.34252 1.5534 10 1.5534C14.6575 1.5534 18.4466 5.34252 18.4466 10C18.4466 14.6574 14.6575 18.4466 10 18.4466Z" fill="#555453"/>
<path d="M10 3.8833C6.62738 3.8833 3.88354 6.62714 3.88354 9.9998C3.88354 13.3725 6.62738 16.1163 10 16.1163C11.1384 16.1163 12.2049 15.8033 13.1186 15.2595L12.6906 14.8159C12.6442 14.924 12.5772 15.0209 12.4917 15.1033C12.326 15.2634 12.1072 15.3518 11.876 15.3518C11.5143 15.3507 11.1934 15.1354 11.0564 14.8033L10.9188 14.4699C10.622 14.5309 10.3147 14.5629 10 14.5629C7.48393 14.5629 5.43694 12.5159 5.43694 9.9998C5.43694 7.48369 7.48393 5.4367 10 5.4367C12.5162 5.4367 14.5632 7.48369 14.5632 9.9998C14.5632 10.3589 14.5213 10.7084 14.4425 11.0439L14.7889 11.2015C15.1163 11.3505 15.3199 11.6789 15.308 12.0381C15.2963 12.394 15.0749 12.706 14.7433 12.8351L15.1652 13.2724C15.7673 12.3254 16.1166 11.2027 16.1166 9.9998C16.1166 6.62714 13.3727 3.8833 10 3.8833Z" fill="#555453"/>
<path d="M10.0405 9.12887C10.1677 9.12887 10.2909 9.15552 10.4067 9.20799L11.8387 9.8595C11.7668 8.90639 10.9714 8.15527 9.99993 8.15527C8.98115 8.15527 8.15527 8.98115 8.15527 9.99993C8.15527 10.9622 8.89217 11.752 9.83236 11.8367L9.22061 10.3539C9.08086 10.0152 9.16095 9.63188 9.42474 9.37746C9.59042 9.21731 9.8093 9.12887 10.0405 9.12887Z" fill="#555453"/>
<path d="M13.5164 12.5451L14.5425 12.1572C14.6023 12.1344 14.6428 12.078 14.6449 12.0139C14.6471 11.95 14.6104 11.8909 14.5521 11.8643L10.171 9.87113C10.1116 9.84423 10.042 9.85622 9.99504 9.90147C9.94819 9.94666 9.93368 10.0158 9.95853 10.0761L11.7942 14.5254C11.8186 14.5848 11.8763 14.6236 11.9404 14.6236C11.9825 14.6237 12.022 14.6071 12.051 14.5791C12.0663 14.5644 12.0787 14.5466 12.0872 14.5263L12.5115 13.5146L14.0878 15.1481C14.1486 15.2112 14.249 15.2129 14.3121 15.152L15.0886 14.4028C15.1516 14.3419 15.1534 14.2415 15.0925 14.1785L13.5164 12.5451Z" fill="#555453"/>
</svg>
